%TF.GenerationSoftware,Altium Limited,Altium Designer,24.7.2 (38)*%
G04 Layer_Physical_Order=2*
G04 Layer_Color=16711680*
%FSLAX45Y45*%
%MOMM*%
%TF.SameCoordinates,665F1D1F-C803-44D7-9F74-9D0A5895F251*%
%TF.FilePolarity,Positive*%
%TF.FileFunction,Copper,L2,Bot,Signal*%
%TF.Part,Single*%
G01*
G75*
%TA.AperFunction,ViaPad*%
%ADD28C,0.35000*%
G36*
X11800000Y6399999D02*
X11809849Y6400000D01*
X11829169Y6396157D01*
X11847367Y6388619D01*
X11863746Y6377675D01*
X11877675Y6363746D01*
X11888619Y6347367D01*
X11896157Y6329168D01*
X11897240Y6323721D01*
X11899999Y6300004D01*
Y6299999D01*
X11899999D01*
X11900000Y6299998D01*
X11900000Y3700000D01*
X11900000Y3690151D01*
X11896157Y3670831D01*
X11888619Y3652632D01*
X11877675Y3636253D01*
X11863746Y3622324D01*
X11847368Y3611380D01*
X11829169Y3603842D01*
X11824217Y3602857D01*
X11800000Y3600000D01*
X8200000D01*
X8190151Y3600000D01*
X8170831Y3603843D01*
X8152632Y3611381D01*
X8136253Y3622324D01*
X8122325Y3636253D01*
X8111381Y3652632D01*
X8103843Y3670831D01*
X8100000Y3690151D01*
X8100000Y3700000D01*
Y6300000D01*
Y6309849D01*
X8103843Y6329168D01*
X8111381Y6347367D01*
X8122325Y6363746D01*
X8136253Y6377674D01*
X8152632Y6388618D01*
X8170831Y6396156D01*
X8190150Y6399999D01*
X8200000Y6399999D01*
X8200000Y6400000D01*
X11800000Y6399999D01*
D02*
G37*
D28*
X10270000Y4757500D02*
D03*
X8645000Y4520000D02*
D03*
X8957500Y4522500D02*
D03*
X11850006Y4800003D02*
D03*
X11800006Y4100002D02*
D03*
X11850006Y4000002D02*
D03*
X11800006Y3900002D02*
D03*
X11850006Y3800002D02*
D03*
X11800006Y3700002D02*
D03*
X11750006Y4800003D02*
D03*
X11700006Y4700003D02*
D03*
Y4100002D02*
D03*
X11750006Y4000002D02*
D03*
X11700006Y3900002D02*
D03*
X11750006Y3800002D02*
D03*
X11700006Y3700002D02*
D03*
X11600006Y4300002D02*
D03*
Y4100002D02*
D03*
X11650006Y4000002D02*
D03*
X11600006Y3900002D02*
D03*
X11650006Y3800002D02*
D03*
X11600006Y3700002D02*
D03*
X11500006Y4300002D02*
D03*
X11550006Y4200002D02*
D03*
X11500006Y4100002D02*
D03*
X11550006Y4000002D02*
D03*
X11500006Y3900002D02*
D03*
X11550006Y3800002D02*
D03*
X11500006Y3700002D02*
D03*
X11450006Y4200002D02*
D03*
X11400006Y4100002D02*
D03*
X11450006Y4000002D02*
D03*
X11400006Y3900002D02*
D03*
X11450006Y3800002D02*
D03*
X11400006Y3700002D02*
D03*
X11350006Y4200002D02*
D03*
X11300006Y4100002D02*
D03*
X11350006Y4000002D02*
D03*
X11300006Y3900002D02*
D03*
X11350006Y3800002D02*
D03*
X11300006Y3700002D02*
D03*
X11200006Y4300002D02*
D03*
X11250006Y4200002D02*
D03*
X11200006Y4100002D02*
D03*
X11250006Y4000002D02*
D03*
X11200006Y3900002D02*
D03*
X11250006Y3800002D02*
D03*
X11200006Y3700002D02*
D03*
X11100006Y4500002D02*
D03*
X11150006Y4400002D02*
D03*
X11100006Y4300002D02*
D03*
X11150006Y4200002D02*
D03*
X11100006Y4100002D02*
D03*
X11150006Y4000002D02*
D03*
X11100006Y3900002D02*
D03*
X11150006Y3800002D02*
D03*
X11100006Y3700002D02*
D03*
X11000006Y4500002D02*
D03*
X11050006Y4400002D02*
D03*
X11000006Y4300002D02*
D03*
X11050006Y4200002D02*
D03*
X11000006Y4100002D02*
D03*
X11050006Y4000002D02*
D03*
X11000006Y3900002D02*
D03*
X11050006Y3800002D02*
D03*
X11000006Y3700002D02*
D03*
X10900006Y4500002D02*
D03*
X10950006Y4400002D02*
D03*
X10900006Y4300002D02*
D03*
X10950006Y4200002D02*
D03*
X10900006Y4100002D02*
D03*
X10950006Y4000002D02*
D03*
X10900006Y3900002D02*
D03*
X10950006Y3800002D02*
D03*
X10900006Y3700002D02*
D03*
X10800006Y4500002D02*
D03*
X10850006Y4400002D02*
D03*
X10800006Y4300002D02*
D03*
X10850006Y4200002D02*
D03*
X10800006Y4100002D02*
D03*
X10850006Y4000002D02*
D03*
X10800006Y3900002D02*
D03*
X10850006Y3800002D02*
D03*
X10800006Y3700002D02*
D03*
X10750006Y4400002D02*
D03*
X10700006Y4300002D02*
D03*
X10750006Y4200002D02*
D03*
X10700006Y4100002D02*
D03*
X10750006Y4000002D02*
D03*
X10700006Y3900002D02*
D03*
X10750006Y3800002D02*
D03*
X10700006Y3700002D02*
D03*
X10600006Y5300003D02*
D03*
Y5100003D02*
D03*
X10650006Y4400002D02*
D03*
X10600006Y4300002D02*
D03*
X10650006Y4200002D02*
D03*
X10600006Y4100002D02*
D03*
X10650006Y4000002D02*
D03*
X10600006Y3900002D02*
D03*
X10650006Y3800002D02*
D03*
X10600006Y3700002D02*
D03*
X10500006Y5300003D02*
D03*
X10550006Y5200003D02*
D03*
X10500006Y5100003D02*
D03*
Y4500002D02*
D03*
X10550006Y4400002D02*
D03*
X10500006Y4300002D02*
D03*
X10550006Y4200002D02*
D03*
X10500006Y4100002D02*
D03*
X10550006Y4000002D02*
D03*
X10500006Y3900002D02*
D03*
X10550006Y3800002D02*
D03*
X10500006Y3700002D02*
D03*
X10450006Y5200003D02*
D03*
X10400006Y5100003D02*
D03*
X10450006Y4600002D02*
D03*
X10400006Y4500002D02*
D03*
X10450006Y4400002D02*
D03*
X10400006Y4300002D02*
D03*
X10450006Y4200002D02*
D03*
X10400006Y4100002D02*
D03*
X10450006Y4000002D02*
D03*
X10400006Y3900002D02*
D03*
X10450006Y3800002D02*
D03*
X10400006Y3700002D02*
D03*
X10350005Y5200003D02*
D03*
Y4600002D02*
D03*
X10300006Y4500002D02*
D03*
X10350005Y4400002D02*
D03*
X10300006Y4300002D02*
D03*
X10350005Y4200002D02*
D03*
X10300006Y4100002D02*
D03*
X10350005Y4000002D02*
D03*
X10300006Y3900002D02*
D03*
X10350005Y3800002D02*
D03*
X10300006Y3700002D02*
D03*
X10250005Y5200003D02*
D03*
Y4600002D02*
D03*
X10200006Y4500002D02*
D03*
X10250005Y4400002D02*
D03*
X10200006Y4300002D02*
D03*
X10250005Y4200002D02*
D03*
X10200006Y4100002D02*
D03*
X10250005Y4000002D02*
D03*
X10200006Y3900002D02*
D03*
X10250005Y3800002D02*
D03*
X10200006Y3700002D02*
D03*
X10100005Y5700003D02*
D03*
X10150005Y4800003D02*
D03*
X10100005Y4500002D02*
D03*
X10150005Y4400002D02*
D03*
X10100005Y4300002D02*
D03*
X10150005Y4200002D02*
D03*
X10100005Y4100002D02*
D03*
X10150005Y4000002D02*
D03*
X10100005Y3900002D02*
D03*
X10150005Y3800002D02*
D03*
X10100005Y3700002D02*
D03*
X10000005Y4500002D02*
D03*
X10050005Y4400002D02*
D03*
X10000005Y4300002D02*
D03*
X10050005Y4200002D02*
D03*
X10000005Y4100002D02*
D03*
X10050005Y4000002D02*
D03*
X10000005Y3900002D02*
D03*
X10050005Y3800002D02*
D03*
X10000005Y3700002D02*
D03*
X9900005Y4500002D02*
D03*
X9950005Y4400002D02*
D03*
X9900005Y4300002D02*
D03*
X9950005Y4200002D02*
D03*
X9900005Y4100002D02*
D03*
X9950005Y4000002D02*
D03*
X9900005Y3900002D02*
D03*
X9950005Y3800002D02*
D03*
X9900005Y3700002D02*
D03*
X9800005Y4500002D02*
D03*
X9850005Y4400002D02*
D03*
X9800005Y4300002D02*
D03*
X9850005Y4200002D02*
D03*
X9800005Y4100002D02*
D03*
X9850005Y4000002D02*
D03*
X9800005Y3900002D02*
D03*
X9850005Y3800002D02*
D03*
X9800005Y3700002D02*
D03*
X9700005Y4500002D02*
D03*
X9750005Y4400002D02*
D03*
X9700005Y4300002D02*
D03*
X9750005Y4200002D02*
D03*
X9700005Y4100002D02*
D03*
X9750005Y4000002D02*
D03*
X9700005Y3900002D02*
D03*
X9750005Y3800002D02*
D03*
X9700005Y3700002D02*
D03*
X9600005Y4500002D02*
D03*
X9650005Y4400002D02*
D03*
X9600005Y4300002D02*
D03*
X9650005Y4200002D02*
D03*
X9600005Y4100002D02*
D03*
X9650005Y4000002D02*
D03*
X9600005Y3900002D02*
D03*
X9650005Y3800002D02*
D03*
X9600005Y3700002D02*
D03*
X9500005Y4500002D02*
D03*
X9550005Y4400002D02*
D03*
X9500005Y4300002D02*
D03*
X9550005Y4200002D02*
D03*
X9500005Y4100002D02*
D03*
X9550005Y4000002D02*
D03*
X9500005Y3900002D02*
D03*
X9550005Y3800002D02*
D03*
X9500005Y3700002D02*
D03*
X9400005Y5300003D02*
D03*
X9450005Y5200003D02*
D03*
X9400005Y5100003D02*
D03*
Y4500002D02*
D03*
X9450005Y4400002D02*
D03*
X9400005Y4300002D02*
D03*
X9450005Y4200002D02*
D03*
X9400005Y4100002D02*
D03*
X9450005Y4000002D02*
D03*
X9400005Y3900002D02*
D03*
X9450005Y3800002D02*
D03*
X9400005Y3700002D02*
D03*
X9300005Y5100003D02*
D03*
Y4500002D02*
D03*
X9350005Y4400002D02*
D03*
X9300005Y4300002D02*
D03*
X9350005Y4200002D02*
D03*
X9300005Y4100002D02*
D03*
X9350005Y4000002D02*
D03*
X9300005Y3900002D02*
D03*
X9350005Y3800002D02*
D03*
X9300005Y3700002D02*
D03*
X9200005Y4500002D02*
D03*
X9250005Y4400002D02*
D03*
X9200005Y4300002D02*
D03*
X9250005Y4200002D02*
D03*
X9200005Y4100002D02*
D03*
X9250005Y4000002D02*
D03*
X9200005Y3900002D02*
D03*
X9250005Y3800002D02*
D03*
X9200005Y3700002D02*
D03*
X9100005Y4500002D02*
D03*
X9150005Y4400002D02*
D03*
X9100005Y4300002D02*
D03*
X9150005Y4200002D02*
D03*
X9100005Y4100002D02*
D03*
X9150005Y4000002D02*
D03*
X9100005Y3900002D02*
D03*
X9150005Y3800002D02*
D03*
X9100005Y3700002D02*
D03*
X9050005Y4400002D02*
D03*
X9000005Y4300002D02*
D03*
X9050005Y4200002D02*
D03*
X9000005Y4100002D02*
D03*
X9050005Y4000002D02*
D03*
X9000005Y3900002D02*
D03*
X9050005Y3800002D02*
D03*
X9000005Y3700002D02*
D03*
X8900005Y4300002D02*
D03*
X8950005Y4200002D02*
D03*
X8900005Y4100002D02*
D03*
X8950005Y4000002D02*
D03*
X8900005Y3900002D02*
D03*
X8950005Y3800002D02*
D03*
X8900005Y3700002D02*
D03*
X8850005Y4200002D02*
D03*
X8800005Y4100002D02*
D03*
X8850005Y4000002D02*
D03*
X8800005Y3900002D02*
D03*
X8850005Y3800002D02*
D03*
X8800005Y3700002D02*
D03*
X8700005Y4300002D02*
D03*
X8750005Y4200002D02*
D03*
X8700005Y4100002D02*
D03*
X8750005Y4000002D02*
D03*
X8700005Y3900002D02*
D03*
X8750005Y3800002D02*
D03*
X8700005Y3700002D02*
D03*
X8600005Y4300002D02*
D03*
X8650005Y4200002D02*
D03*
X8600005Y4100002D02*
D03*
X8650005Y4000002D02*
D03*
X8600005Y3900002D02*
D03*
X8650005Y3800002D02*
D03*
X8600005Y3700002D02*
D03*
X8500005Y5100003D02*
D03*
Y4900003D02*
D03*
Y4700003D02*
D03*
Y4500002D02*
D03*
X8550004Y4400002D02*
D03*
X8500005Y4300002D02*
D03*
X8550004Y4200002D02*
D03*
X8500005Y4100002D02*
D03*
X8550004Y4000002D02*
D03*
X8500005Y3900002D02*
D03*
X8550004Y3800002D02*
D03*
X8500005Y3700002D02*
D03*
X8400005Y5100003D02*
D03*
X8450004Y5000003D02*
D03*
X8400005Y4900003D02*
D03*
X8450004Y4800003D02*
D03*
X8400005Y4700003D02*
D03*
X8450004Y4600002D02*
D03*
Y4400002D02*
D03*
X8400005Y4300002D02*
D03*
X8450004Y4200002D02*
D03*
X8400005Y4100002D02*
D03*
X8450004Y4000002D02*
D03*
X8400005Y3900002D02*
D03*
X8450004Y3800002D02*
D03*
X8400005Y3700002D02*
D03*
X8300004Y5100003D02*
D03*
X8350004Y5000003D02*
D03*
X8300004Y4900003D02*
D03*
X8350004Y4800003D02*
D03*
X8300004Y4700003D02*
D03*
Y4100002D02*
D03*
X8350004Y4000002D02*
D03*
X8300004Y3900002D02*
D03*
X8350004Y3800002D02*
D03*
X8300004Y3700002D02*
D03*
X8200004Y5100003D02*
D03*
X8250004Y5000003D02*
D03*
X8200004Y4900003D02*
D03*
Y4100002D02*
D03*
X8250004Y4000002D02*
D03*
X8200004Y3900002D02*
D03*
X8250004Y3800002D02*
D03*
X8200004Y3700002D02*
D03*
X10157500Y5230000D02*
D03*
X11862500Y5677500D02*
D03*
X9557500Y5342500D02*
D03*
X9240000Y5145000D02*
D03*
X10145000Y5612500D02*
D03*
X8200000Y4675000D02*
D03*
X8422500Y4502500D02*
D03*
X8195000Y4322500D02*
D03*
X8802500Y4332500D02*
D03*
X10150000Y5775000D02*
D03*
X10427500Y5327500D02*
D03*
X10227500Y5242500D02*
D03*
X10307500Y5167500D02*
D03*
X10157500Y4977500D02*
D03*
X10520000Y5050000D02*
D03*
X10372500Y4980000D02*
D03*
X10375000Y4827500D02*
D03*
X10522500Y4617500D02*
D03*
X11345000Y4287500D02*
D03*
X11800000Y4327500D02*
D03*
X11575000Y4432500D02*
D03*
Y4502500D02*
D03*
X11800000Y4672500D02*
D03*
X11835000Y4955000D02*
D03*
X11687500Y4825000D02*
D03*
%TF.MD5,89182762cf002a2ded1063679f26a2b3*%
M02*
