%TF.GenerationSoftware,Altium Limited,Altium Designer,24.7.2 (38)*%
G04 Layer_Color=32768*
%FSLAX45Y45*%
%MOMM*%
%TF.SameCoordinates,665F1D1F-C803-44D7-9F74-9D0A5895F251*%
%TF.FilePolarity,Positive*%
%TF.FileFunction,Other,Top_Courtyard*%
%TF.Part,Single*%
G01*
G75*
%TA.AperFunction,NonConductor*%
%ADD30C,0.20000*%
D30*
X11541894Y6134394D02*
X11873107D01*
X11541894D02*
Y6320607D01*
X11873107D01*
Y6134394D02*
Y6320607D01*
X11722500Y5715000D02*
Y6065000D01*
X11877500D01*
Y5715000D02*
Y6065000D01*
X11722500Y5715000D02*
X11877500D01*
X11540208Y4307325D02*
Y4887636D01*
X11149792Y4307325D02*
X11540208D01*
X11149792D02*
Y4887636D01*
X11540208D01*
X10636650Y5764600D02*
X11482150D01*
Y5072200D02*
Y5764600D01*
X10636650Y5072200D02*
X11482150D01*
X10636650D02*
Y5764600D01*
X9929503Y5820000D02*
X10200325D01*
X9929503D02*
Y5980000D01*
X10200325D01*
Y5820000D02*
Y5980000D01*
X9710000Y5757500D02*
Y6067500D01*
X9875000D01*
Y5757500D02*
Y6067500D01*
X9710000Y5757500D02*
X9875000D01*
X8592500Y4398000D02*
Y5002000D01*
X9007500D01*
Y4398000D02*
Y5002000D01*
X8592500Y4398000D02*
X9007500D01*
X9896465Y5613400D02*
X10393535D01*
Y5223400D02*
Y5613400D01*
X9896465Y5223400D02*
X10393535D01*
X9896465D02*
Y5613400D01*
X9540000Y5685000D02*
X9820000D01*
Y5515000D02*
Y5685000D01*
X9540000Y5515000D02*
X9820000D01*
X9540000D02*
Y5685000D01*
X9335000Y5200000D02*
Y5480000D01*
X9165000Y5200000D02*
X9335000D01*
X9165000D02*
Y5480000D01*
X9335000D01*
X10384844Y4629792D02*
X10965156D01*
X10384844D02*
Y5020208D01*
X10965156D01*
Y4629792D02*
Y5020208D01*
X9859844Y5140208D02*
X10340156D01*
Y4809792D02*
Y5140208D01*
X9859844Y4809792D02*
X10340156D01*
X9859844D02*
Y5140208D01*
X8632520Y5952900D02*
X8967480D01*
X8632520Y5247100D02*
Y5952900D01*
Y5247100D02*
X8967480D01*
Y5952900D01*
%TF.MD5,c0db81404f0d3ce4ef1521ffbce12d39*%
M02*
