%TF.GenerationSoftware,Altium Limited,Altium Designer,24.7.2 (38)*%
G04 Layer_Color=8421504*
%FSLAX45Y45*%
%MOMM*%
%TF.SameCoordinates,665F1D1F-C803-44D7-9F74-9D0A5895F251*%
%TF.FilePolarity,Positive*%
%TF.FileFunction,Paste,Top*%
%TF.Part,Single*%
G01*
G75*
%TA.AperFunction,SMDPad,CuDef*%
%ADD10R,1.05814X1.36213*%
%ADD11R,1.20000X1.20000*%
%ADD12O,3.00000X2.00000*%
%TA.AperFunction,ConnectorPad*%
%ADD13R,1.45000X1.30000*%
%TA.AperFunction,SMDPad,CuDef*%
%ADD14R,2.90415X1.70273*%
%ADD15R,2.41300X3.42900*%
%ADD16R,1.30000X1.45000*%
%ADD17R,0.80650X1.30822*%
%ADD18R,1.45000X0.95000*%
%ADD19R,2.18000X1.62000*%
%ADD20R,1.53971X0.56583*%
G04:AMPARAMS|DCode=21|XSize=1.53971mm|YSize=0.56583mm|CornerRadius=0.28292mm|HoleSize=0mm|Usage=FLASHONLY|Rotation=0.000|XOffset=0mm|YOffset=0mm|HoleType=Round|Shape=RoundedRectangle|*
%AMROUNDEDRECTD21*
21,1,1.53971,0.00000,0,0,0.0*
21,1,0.97388,0.56583,0,0,0.0*
1,1,0.56583,0.48694,0.00000*
1,1,0.56583,-0.48694,0.00000*
1,1,0.56583,-0.48694,0.00000*
1,1,0.56583,0.48694,0.00000*
%
%ADD21ROUNDEDRECTD21*%
%ADD22R,0.95000X1.35000*%
%ADD23R,1.35000X0.95000*%
%ADD24R,1.70273X2.90415*%
%ADD25R,0.95312X2.80415*%
%ADD26R,3.14960X1.95580*%
D10*
X11795199Y6227500D02*
D03*
X11619801D02*
D03*
D11*
X11800000Y5785000D02*
D03*
Y5995000D02*
D03*
D12*
Y5500000D02*
D03*
Y4500000D02*
D03*
X8200000D02*
D03*
Y5500000D02*
D03*
D13*
X11687500Y4955000D02*
D03*
Y5115000D02*
D03*
D14*
X11345000Y4752500D02*
D03*
Y4442461D02*
D03*
D15*
X10767300Y5418400D02*
D03*
X11351500D02*
D03*
D16*
X10479000Y5748600D02*
D03*
X10319000D02*
D03*
X9562500Y5215000D02*
D03*
X9722500D02*
D03*
D17*
X10150000Y5900000D02*
D03*
X9979829D02*
D03*
D18*
X9792500Y5815000D02*
D03*
Y6010000D02*
D03*
D19*
X8800000Y4489000D02*
D03*
Y4911000D02*
D03*
D20*
X10023450Y5513400D02*
D03*
D21*
Y5418400D02*
D03*
Y5323400D02*
D03*
X10266550D02*
D03*
Y5418400D02*
D03*
Y5513400D02*
D03*
D22*
X9605000Y5600000D02*
D03*
X9755000D02*
D03*
D23*
X9250000Y5415000D02*
D03*
Y5265000D02*
D03*
D24*
X10830019Y4825000D02*
D03*
X10519980D02*
D03*
D25*
X9932500Y4975000D02*
D03*
X10267500D02*
D03*
D26*
X8800000Y5354890D02*
D03*
Y5845110D02*
D03*
%TF.MD5,795b5777ebaa83dfc092ca12af6032c5*%
M02*
