%TF.GenerationSoftware,Altium Limited,Altium Designer,24.7.2 (38)*%
G04 Layer_Color=2752767*
%FSLAX45Y45*%
%MOMM*%
%TF.SameCoordinates,665F1D1F-C803-44D7-9F74-9D0A5895F251*%
%TF.FilePolarity,Positive*%
%TF.FileFunction,Drawing*%
%TF.Part,Single*%
G01*
G75*
%TA.AperFunction,NonConductor*%
%ADD41C,0.12700*%
D41*
X10219200Y4706700D02*
Y4808300D01*
X10320800D01*
Y4706700D01*
X10219200D01*
X8594200Y4469200D02*
Y4570800D01*
X8695800D01*
Y4469200D01*
X8594200D01*
X8906700Y4471700D02*
Y4573300D01*
X9008300D01*
Y4471700D01*
X8906700D01*
X11799206Y4749203D02*
Y4850803D01*
X11900806D01*
Y4749203D01*
X11799206D01*
X11749206Y4049202D02*
Y4150802D01*
X11850806D01*
Y4049202D01*
X11749206D01*
X11799206Y3949202D02*
Y4050802D01*
X11900806D01*
Y3949202D01*
X11799206D01*
X11749206Y3849202D02*
Y3950802D01*
X11850806D01*
Y3849202D01*
X11749206D01*
X11799206Y3749202D02*
Y3850802D01*
X11900806D01*
Y3749202D01*
X11799206D01*
X11749206Y3649202D02*
Y3750802D01*
X11850806D01*
Y3649202D01*
X11749206D01*
X11699206Y4749203D02*
Y4850803D01*
X11800806D01*
Y4749203D01*
X11699206D01*
X11649206Y4649203D02*
Y4750803D01*
X11750806D01*
Y4649203D01*
X11649206D01*
Y4049202D02*
Y4150802D01*
X11750806D01*
Y4049202D01*
X11649206D01*
X11699206Y3949202D02*
Y4050802D01*
X11800806D01*
Y3949202D01*
X11699206D01*
X11649206Y3849202D02*
Y3950802D01*
X11750806D01*
Y3849202D01*
X11649206D01*
X11699206Y3749202D02*
Y3850802D01*
X11800806D01*
Y3749202D01*
X11699206D01*
X11649206Y3649202D02*
Y3750802D01*
X11750806D01*
Y3649202D01*
X11649206D01*
X11549206Y4249202D02*
Y4350802D01*
X11650806D01*
Y4249202D01*
X11549206D01*
Y4049202D02*
Y4150802D01*
X11650806D01*
Y4049202D01*
X11549206D01*
X11599206Y3949202D02*
Y4050802D01*
X11700806D01*
Y3949202D01*
X11599206D01*
X11549206Y3849202D02*
Y3950802D01*
X11650806D01*
Y3849202D01*
X11549206D01*
X11599206Y3749202D02*
Y3850802D01*
X11700806D01*
Y3749202D01*
X11599206D01*
X11549206Y3649202D02*
Y3750802D01*
X11650806D01*
Y3649202D01*
X11549206D01*
X11449206Y4249202D02*
Y4350802D01*
X11550806D01*
Y4249202D01*
X11449206D01*
X11499206Y4149202D02*
Y4250802D01*
X11600806D01*
Y4149202D01*
X11499206D01*
X11449206Y4049202D02*
Y4150802D01*
X11550806D01*
Y4049202D01*
X11449206D01*
X11499206Y3949202D02*
Y4050802D01*
X11600806D01*
Y3949202D01*
X11499206D01*
X11449206Y3849202D02*
Y3950802D01*
X11550806D01*
Y3849202D01*
X11449206D01*
X11499206Y3749202D02*
Y3850802D01*
X11600806D01*
Y3749202D01*
X11499206D01*
X11449206Y3649202D02*
Y3750802D01*
X11550806D01*
Y3649202D01*
X11449206D01*
X11399206Y4149202D02*
Y4250802D01*
X11500806D01*
Y4149202D01*
X11399206D01*
X11349206Y4049202D02*
Y4150802D01*
X11450806D01*
Y4049202D01*
X11349206D01*
X11399206Y3949202D02*
Y4050802D01*
X11500806D01*
Y3949202D01*
X11399206D01*
X11349206Y3849202D02*
Y3950802D01*
X11450806D01*
Y3849202D01*
X11349206D01*
X11399206Y3749202D02*
Y3850802D01*
X11500806D01*
Y3749202D01*
X11399206D01*
X11349206Y3649202D02*
Y3750802D01*
X11450806D01*
Y3649202D01*
X11349206D01*
X11299206Y4149202D02*
Y4250802D01*
X11400806D01*
Y4149202D01*
X11299206D01*
X11249206Y4049202D02*
Y4150802D01*
X11350806D01*
Y4049202D01*
X11249206D01*
X11299206Y3949202D02*
Y4050802D01*
X11400806D01*
Y3949202D01*
X11299206D01*
X11249206Y3849202D02*
Y3950802D01*
X11350806D01*
Y3849202D01*
X11249206D01*
X11299206Y3749202D02*
Y3850802D01*
X11400806D01*
Y3749202D01*
X11299206D01*
X11249206Y3649202D02*
Y3750802D01*
X11350806D01*
Y3649202D01*
X11249206D01*
X11149206Y4249202D02*
Y4350802D01*
X11250806D01*
Y4249202D01*
X11149206D01*
X11199206Y4149202D02*
Y4250802D01*
X11300806D01*
Y4149202D01*
X11199206D01*
X11149206Y4049202D02*
Y4150802D01*
X11250806D01*
Y4049202D01*
X11149206D01*
X11199206Y3949202D02*
Y4050802D01*
X11300806D01*
Y3949202D01*
X11199206D01*
X11149206Y3849202D02*
Y3950802D01*
X11250806D01*
Y3849202D01*
X11149206D01*
X11199206Y3749202D02*
Y3850802D01*
X11300806D01*
Y3749202D01*
X11199206D01*
X11149206Y3649202D02*
Y3750802D01*
X11250806D01*
Y3649202D01*
X11149206D01*
X11049206Y4449202D02*
Y4550802D01*
X11150806D01*
Y4449202D01*
X11049206D01*
X11099206Y4349202D02*
Y4450802D01*
X11200806D01*
Y4349202D01*
X11099206D01*
X11049206Y4249202D02*
Y4350802D01*
X11150806D01*
Y4249202D01*
X11049206D01*
X11099206Y4149202D02*
Y4250802D01*
X11200806D01*
Y4149202D01*
X11099206D01*
X11049206Y4049202D02*
Y4150802D01*
X11150806D01*
Y4049202D01*
X11049206D01*
X11099206Y3949202D02*
Y4050802D01*
X11200806D01*
Y3949202D01*
X11099206D01*
X11049206Y3849202D02*
Y3950802D01*
X11150806D01*
Y3849202D01*
X11049206D01*
X11099206Y3749202D02*
Y3850802D01*
X11200806D01*
Y3749202D01*
X11099206D01*
X11049206Y3649202D02*
Y3750802D01*
X11150806D01*
Y3649202D01*
X11049206D01*
X10949206Y4449202D02*
Y4550802D01*
X11050806D01*
Y4449202D01*
X10949206D01*
X10999206Y4349202D02*
Y4450802D01*
X11100806D01*
Y4349202D01*
X10999206D01*
X10949206Y4249202D02*
Y4350802D01*
X11050806D01*
Y4249202D01*
X10949206D01*
X10999206Y4149202D02*
Y4250802D01*
X11100806D01*
Y4149202D01*
X10999206D01*
X10949206Y4049202D02*
Y4150802D01*
X11050806D01*
Y4049202D01*
X10949206D01*
X10999206Y3949202D02*
Y4050802D01*
X11100806D01*
Y3949202D01*
X10999206D01*
X10949206Y3849202D02*
Y3950802D01*
X11050806D01*
Y3849202D01*
X10949206D01*
X10999206Y3749202D02*
Y3850802D01*
X11100806D01*
Y3749202D01*
X10999206D01*
X10949206Y3649202D02*
Y3750802D01*
X11050806D01*
Y3649202D01*
X10949206D01*
X10849206Y4449202D02*
Y4550802D01*
X10950806D01*
Y4449202D01*
X10849206D01*
X10899206Y4349202D02*
Y4450802D01*
X11000806D01*
Y4349202D01*
X10899206D01*
X10849206Y4249202D02*
Y4350802D01*
X10950806D01*
Y4249202D01*
X10849206D01*
X10899206Y4149202D02*
Y4250802D01*
X11000806D01*
Y4149202D01*
X10899206D01*
X10849206Y4049202D02*
Y4150802D01*
X10950806D01*
Y4049202D01*
X10849206D01*
X10899206Y3949202D02*
Y4050802D01*
X11000806D01*
Y3949202D01*
X10899206D01*
X10849206Y3849202D02*
Y3950802D01*
X10950806D01*
Y3849202D01*
X10849206D01*
X10899206Y3749202D02*
Y3850802D01*
X11000806D01*
Y3749202D01*
X10899206D01*
X10849206Y3649202D02*
Y3750802D01*
X10950806D01*
Y3649202D01*
X10849206D01*
X10749206Y4449202D02*
Y4550802D01*
X10850806D01*
Y4449202D01*
X10749206D01*
X10799206Y4349202D02*
Y4450802D01*
X10900806D01*
Y4349202D01*
X10799206D01*
X10749206Y4249202D02*
Y4350802D01*
X10850806D01*
Y4249202D01*
X10749206D01*
X10799206Y4149202D02*
Y4250802D01*
X10900806D01*
Y4149202D01*
X10799206D01*
X10749206Y4049202D02*
Y4150802D01*
X10850806D01*
Y4049202D01*
X10749206D01*
X10799206Y3949202D02*
Y4050802D01*
X10900806D01*
Y3949202D01*
X10799206D01*
X10749206Y3849202D02*
Y3950802D01*
X10850806D01*
Y3849202D01*
X10749206D01*
X10799206Y3749202D02*
Y3850802D01*
X10900806D01*
Y3749202D01*
X10799206D01*
X10749206Y3649202D02*
Y3750802D01*
X10850806D01*
Y3649202D01*
X10749206D01*
X10699206Y4349202D02*
Y4450802D01*
X10800806D01*
Y4349202D01*
X10699206D01*
X10649206Y4249202D02*
Y4350802D01*
X10750806D01*
Y4249202D01*
X10649206D01*
X10699206Y4149202D02*
Y4250802D01*
X10800806D01*
Y4149202D01*
X10699206D01*
X10649206Y4049202D02*
Y4150802D01*
X10750806D01*
Y4049202D01*
X10649206D01*
X10699206Y3949202D02*
Y4050802D01*
X10800806D01*
Y3949202D01*
X10699206D01*
X10649206Y3849202D02*
Y3950802D01*
X10750806D01*
Y3849202D01*
X10649206D01*
X10699206Y3749202D02*
Y3850802D01*
X10800806D01*
Y3749202D01*
X10699206D01*
X10649206Y3649202D02*
Y3750802D01*
X10750806D01*
Y3649202D01*
X10649206D01*
X10549206Y5249203D02*
Y5350803D01*
X10650806D01*
Y5249203D01*
X10549206D01*
Y5049203D02*
Y5150803D01*
X10650806D01*
Y5049203D01*
X10549206D01*
X10599206Y4349202D02*
Y4450802D01*
X10700806D01*
Y4349202D01*
X10599206D01*
X10549206Y4249202D02*
Y4350802D01*
X10650806D01*
Y4249202D01*
X10549206D01*
X10599206Y4149202D02*
Y4250802D01*
X10700806D01*
Y4149202D01*
X10599206D01*
X10549206Y4049202D02*
Y4150802D01*
X10650806D01*
Y4049202D01*
X10549206D01*
X10599206Y3949202D02*
Y4050802D01*
X10700806D01*
Y3949202D01*
X10599206D01*
X10549206Y3849202D02*
Y3950802D01*
X10650806D01*
Y3849202D01*
X10549206D01*
X10599206Y3749202D02*
Y3850802D01*
X10700806D01*
Y3749202D01*
X10599206D01*
X10549206Y3649202D02*
Y3750802D01*
X10650806D01*
Y3649202D01*
X10549206D01*
X10449206Y5249203D02*
Y5350803D01*
X10550806D01*
Y5249203D01*
X10449206D01*
X10499206Y5149203D02*
Y5250803D01*
X10600806D01*
Y5149203D01*
X10499206D01*
X10449206Y5049203D02*
Y5150803D01*
X10550806D01*
Y5049203D01*
X10449206D01*
Y4449202D02*
Y4550802D01*
X10550806D01*
Y4449202D01*
X10449206D01*
X10499206Y4349202D02*
Y4450802D01*
X10600806D01*
Y4349202D01*
X10499206D01*
X10449206Y4249202D02*
Y4350802D01*
X10550806D01*
Y4249202D01*
X10449206D01*
X10499206Y4149202D02*
Y4250802D01*
X10600806D01*
Y4149202D01*
X10499206D01*
X10449206Y4049202D02*
Y4150802D01*
X10550806D01*
Y4049202D01*
X10449206D01*
X10499206Y3949202D02*
Y4050802D01*
X10600806D01*
Y3949202D01*
X10499206D01*
X10449206Y3849202D02*
Y3950802D01*
X10550806D01*
Y3849202D01*
X10449206D01*
X10499206Y3749202D02*
Y3850802D01*
X10600806D01*
Y3749202D01*
X10499206D01*
X10449206Y3649202D02*
Y3750802D01*
X10550806D01*
Y3649202D01*
X10449206D01*
X10399206Y5149203D02*
Y5250803D01*
X10500806D01*
Y5149203D01*
X10399206D01*
X10349206Y5049203D02*
Y5150803D01*
X10450806D01*
Y5049203D01*
X10349206D01*
X10399206Y4549202D02*
Y4650802D01*
X10500806D01*
Y4549202D01*
X10399206D01*
X10349206Y4449202D02*
Y4550802D01*
X10450806D01*
Y4449202D01*
X10349206D01*
X10399206Y4349202D02*
Y4450802D01*
X10500806D01*
Y4349202D01*
X10399206D01*
X10349206Y4249202D02*
Y4350802D01*
X10450806D01*
Y4249202D01*
X10349206D01*
X10399206Y4149202D02*
Y4250802D01*
X10500806D01*
Y4149202D01*
X10399206D01*
X10349206Y4049202D02*
Y4150802D01*
X10450806D01*
Y4049202D01*
X10349206D01*
X10399206Y3949202D02*
Y4050802D01*
X10500806D01*
Y3949202D01*
X10399206D01*
X10349206Y3849202D02*
Y3950802D01*
X10450806D01*
Y3849202D01*
X10349206D01*
X10399206Y3749202D02*
Y3850802D01*
X10500806D01*
Y3749202D01*
X10399206D01*
X10349206Y3649202D02*
Y3750802D01*
X10450806D01*
Y3649202D01*
X10349206D01*
X10299205Y5149203D02*
Y5250803D01*
X10400805D01*
Y5149203D01*
X10299205D01*
Y4549202D02*
Y4650802D01*
X10400805D01*
Y4549202D01*
X10299205D01*
X10249206Y4449202D02*
Y4550802D01*
X10350806D01*
Y4449202D01*
X10249206D01*
X10299205Y4349202D02*
Y4450802D01*
X10400805D01*
Y4349202D01*
X10299205D01*
X10249206Y4249202D02*
Y4350802D01*
X10350806D01*
Y4249202D01*
X10249206D01*
X10299205Y4149202D02*
Y4250802D01*
X10400805D01*
Y4149202D01*
X10299205D01*
X10249206Y4049202D02*
Y4150802D01*
X10350806D01*
Y4049202D01*
X10249206D01*
X10299205Y3949202D02*
Y4050802D01*
X10400805D01*
Y3949202D01*
X10299205D01*
X10249206Y3849202D02*
Y3950802D01*
X10350806D01*
Y3849202D01*
X10249206D01*
X10299205Y3749202D02*
Y3850802D01*
X10400805D01*
Y3749202D01*
X10299205D01*
X10249206Y3649202D02*
Y3750802D01*
X10350806D01*
Y3649202D01*
X10249206D01*
X10199205Y5149203D02*
Y5250803D01*
X10300805D01*
Y5149203D01*
X10199205D01*
Y4549202D02*
Y4650802D01*
X10300805D01*
Y4549202D01*
X10199205D01*
X10149206Y4449202D02*
Y4550802D01*
X10250806D01*
Y4449202D01*
X10149206D01*
X10199205Y4349202D02*
Y4450802D01*
X10300805D01*
Y4349202D01*
X10199205D01*
X10149206Y4249202D02*
Y4350802D01*
X10250806D01*
Y4249202D01*
X10149206D01*
X10199205Y4149202D02*
Y4250802D01*
X10300805D01*
Y4149202D01*
X10199205D01*
X10149206Y4049202D02*
Y4150802D01*
X10250806D01*
Y4049202D01*
X10149206D01*
X10199205Y3949202D02*
Y4050802D01*
X10300805D01*
Y3949202D01*
X10199205D01*
X10149206Y3849202D02*
Y3950802D01*
X10250806D01*
Y3849202D01*
X10149206D01*
X10199205Y3749202D02*
Y3850802D01*
X10300805D01*
Y3749202D01*
X10199205D01*
X10149206Y3649202D02*
Y3750802D01*
X10250806D01*
Y3649202D01*
X10149206D01*
X10049205Y5649203D02*
Y5750803D01*
X10150805D01*
Y5649203D01*
X10049205D01*
X10099205Y4749203D02*
Y4850803D01*
X10200805D01*
Y4749203D01*
X10099205D01*
X10049205Y4449202D02*
Y4550802D01*
X10150805D01*
Y4449202D01*
X10049205D01*
X10099205Y4349202D02*
Y4450802D01*
X10200805D01*
Y4349202D01*
X10099205D01*
X10049205Y4249202D02*
Y4350802D01*
X10150805D01*
Y4249202D01*
X10049205D01*
X10099205Y4149202D02*
Y4250802D01*
X10200805D01*
Y4149202D01*
X10099205D01*
X10049205Y4049202D02*
Y4150802D01*
X10150805D01*
Y4049202D01*
X10049205D01*
X10099205Y3949202D02*
Y4050802D01*
X10200805D01*
Y3949202D01*
X10099205D01*
X10049205Y3849202D02*
Y3950802D01*
X10150805D01*
Y3849202D01*
X10049205D01*
X10099205Y3749202D02*
Y3850802D01*
X10200805D01*
Y3749202D01*
X10099205D01*
X10049205Y3649202D02*
Y3750802D01*
X10150805D01*
Y3649202D01*
X10049205D01*
X9949205Y4449202D02*
Y4550802D01*
X10050805D01*
Y4449202D01*
X9949205D01*
X9999205Y4349202D02*
Y4450802D01*
X10100805D01*
Y4349202D01*
X9999205D01*
X9949205Y4249202D02*
Y4350802D01*
X10050805D01*
Y4249202D01*
X9949205D01*
X9999205Y4149202D02*
Y4250802D01*
X10100805D01*
Y4149202D01*
X9999205D01*
X9949205Y4049202D02*
Y4150802D01*
X10050805D01*
Y4049202D01*
X9949205D01*
X9999205Y3949202D02*
Y4050802D01*
X10100805D01*
Y3949202D01*
X9999205D01*
X9949205Y3849202D02*
Y3950802D01*
X10050805D01*
Y3849202D01*
X9949205D01*
X9999205Y3749202D02*
Y3850802D01*
X10100805D01*
Y3749202D01*
X9999205D01*
X9949205Y3649202D02*
Y3750802D01*
X10050805D01*
Y3649202D01*
X9949205D01*
X9849205Y4449202D02*
Y4550802D01*
X9950805D01*
Y4449202D01*
X9849205D01*
X9899205Y4349202D02*
Y4450802D01*
X10000805D01*
Y4349202D01*
X9899205D01*
X9849205Y4249202D02*
Y4350802D01*
X9950805D01*
Y4249202D01*
X9849205D01*
X9899205Y4149202D02*
Y4250802D01*
X10000805D01*
Y4149202D01*
X9899205D01*
X9849205Y4049202D02*
Y4150802D01*
X9950805D01*
Y4049202D01*
X9849205D01*
X9899205Y3949202D02*
Y4050802D01*
X10000805D01*
Y3949202D01*
X9899205D01*
X9849205Y3849202D02*
Y3950802D01*
X9950805D01*
Y3849202D01*
X9849205D01*
X9899205Y3749202D02*
Y3850802D01*
X10000805D01*
Y3749202D01*
X9899205D01*
X9849205Y3649202D02*
Y3750802D01*
X9950805D01*
Y3649202D01*
X9849205D01*
X9749205Y4449202D02*
Y4550802D01*
X9850805D01*
Y4449202D01*
X9749205D01*
X9799205Y4349202D02*
Y4450802D01*
X9900805D01*
Y4349202D01*
X9799205D01*
X9749205Y4249202D02*
Y4350802D01*
X9850805D01*
Y4249202D01*
X9749205D01*
X9799205Y4149202D02*
Y4250802D01*
X9900805D01*
Y4149202D01*
X9799205D01*
X9749205Y4049202D02*
Y4150802D01*
X9850805D01*
Y4049202D01*
X9749205D01*
X9799205Y3949202D02*
Y4050802D01*
X9900805D01*
Y3949202D01*
X9799205D01*
X9749205Y3849202D02*
Y3950802D01*
X9850805D01*
Y3849202D01*
X9749205D01*
X9799205Y3749202D02*
Y3850802D01*
X9900805D01*
Y3749202D01*
X9799205D01*
X9749205Y3649202D02*
Y3750802D01*
X9850805D01*
Y3649202D01*
X9749205D01*
X9649205Y4449202D02*
Y4550802D01*
X9750805D01*
Y4449202D01*
X9649205D01*
X9699205Y4349202D02*
Y4450802D01*
X9800805D01*
Y4349202D01*
X9699205D01*
X9649205Y4249202D02*
Y4350802D01*
X9750805D01*
Y4249202D01*
X9649205D01*
X9699205Y4149202D02*
Y4250802D01*
X9800805D01*
Y4149202D01*
X9699205D01*
X9649205Y4049202D02*
Y4150802D01*
X9750805D01*
Y4049202D01*
X9649205D01*
X9699205Y3949202D02*
Y4050802D01*
X9800805D01*
Y3949202D01*
X9699205D01*
X9649205Y3849202D02*
Y3950802D01*
X9750805D01*
Y3849202D01*
X9649205D01*
X9699205Y3749202D02*
Y3850802D01*
X9800805D01*
Y3749202D01*
X9699205D01*
X9649205Y3649202D02*
Y3750802D01*
X9750805D01*
Y3649202D01*
X9649205D01*
X9549205Y4449202D02*
Y4550802D01*
X9650805D01*
Y4449202D01*
X9549205D01*
X9599205Y4349202D02*
Y4450802D01*
X9700805D01*
Y4349202D01*
X9599205D01*
X9549205Y4249202D02*
Y4350802D01*
X9650805D01*
Y4249202D01*
X9549205D01*
X9599205Y4149202D02*
Y4250802D01*
X9700805D01*
Y4149202D01*
X9599205D01*
X9549205Y4049202D02*
Y4150802D01*
X9650805D01*
Y4049202D01*
X9549205D01*
X9599205Y3949202D02*
Y4050802D01*
X9700805D01*
Y3949202D01*
X9599205D01*
X9549205Y3849202D02*
Y3950802D01*
X9650805D01*
Y3849202D01*
X9549205D01*
X9599205Y3749202D02*
Y3850802D01*
X9700805D01*
Y3749202D01*
X9599205D01*
X9549205Y3649202D02*
Y3750802D01*
X9650805D01*
Y3649202D01*
X9549205D01*
X9449205Y4449202D02*
Y4550802D01*
X9550805D01*
Y4449202D01*
X9449205D01*
X9499205Y4349202D02*
Y4450802D01*
X9600805D01*
Y4349202D01*
X9499205D01*
X9449205Y4249202D02*
Y4350802D01*
X9550805D01*
Y4249202D01*
X9449205D01*
X9499205Y4149202D02*
Y4250802D01*
X9600805D01*
Y4149202D01*
X9499205D01*
X9449205Y4049202D02*
Y4150802D01*
X9550805D01*
Y4049202D01*
X9449205D01*
X9499205Y3949202D02*
Y4050802D01*
X9600805D01*
Y3949202D01*
X9499205D01*
X9449205Y3849202D02*
Y3950802D01*
X9550805D01*
Y3849202D01*
X9449205D01*
X9499205Y3749202D02*
Y3850802D01*
X9600805D01*
Y3749202D01*
X9499205D01*
X9449205Y3649202D02*
Y3750802D01*
X9550805D01*
Y3649202D01*
X9449205D01*
X9349205Y5249203D02*
Y5350803D01*
X9450805D01*
Y5249203D01*
X9349205D01*
X9399205Y5149203D02*
Y5250803D01*
X9500805D01*
Y5149203D01*
X9399205D01*
X9349205Y5049203D02*
Y5150803D01*
X9450805D01*
Y5049203D01*
X9349205D01*
Y4449202D02*
Y4550802D01*
X9450805D01*
Y4449202D01*
X9349205D01*
X9399205Y4349202D02*
Y4450802D01*
X9500805D01*
Y4349202D01*
X9399205D01*
X9349205Y4249202D02*
Y4350802D01*
X9450805D01*
Y4249202D01*
X9349205D01*
X9399205Y4149202D02*
Y4250802D01*
X9500805D01*
Y4149202D01*
X9399205D01*
X9349205Y4049202D02*
Y4150802D01*
X9450805D01*
Y4049202D01*
X9349205D01*
X9399205Y3949202D02*
Y4050802D01*
X9500805D01*
Y3949202D01*
X9399205D01*
X9349205Y3849202D02*
Y3950802D01*
X9450805D01*
Y3849202D01*
X9349205D01*
X9399205Y3749202D02*
Y3850802D01*
X9500805D01*
Y3749202D01*
X9399205D01*
X9349205Y3649202D02*
Y3750802D01*
X9450805D01*
Y3649202D01*
X9349205D01*
X9249205Y5049203D02*
Y5150803D01*
X9350805D01*
Y5049203D01*
X9249205D01*
Y4449202D02*
Y4550802D01*
X9350805D01*
Y4449202D01*
X9249205D01*
X9299205Y4349202D02*
Y4450802D01*
X9400805D01*
Y4349202D01*
X9299205D01*
X9249205Y4249202D02*
Y4350802D01*
X9350805D01*
Y4249202D01*
X9249205D01*
X9299205Y4149202D02*
Y4250802D01*
X9400805D01*
Y4149202D01*
X9299205D01*
X9249205Y4049202D02*
Y4150802D01*
X9350805D01*
Y4049202D01*
X9249205D01*
X9299205Y3949202D02*
Y4050802D01*
X9400805D01*
Y3949202D01*
X9299205D01*
X9249205Y3849202D02*
Y3950802D01*
X9350805D01*
Y3849202D01*
X9249205D01*
X9299205Y3749202D02*
Y3850802D01*
X9400805D01*
Y3749202D01*
X9299205D01*
X9249205Y3649202D02*
Y3750802D01*
X9350805D01*
Y3649202D01*
X9249205D01*
X9149205Y4449202D02*
Y4550802D01*
X9250805D01*
Y4449202D01*
X9149205D01*
X9199205Y4349202D02*
Y4450802D01*
X9300805D01*
Y4349202D01*
X9199205D01*
X9149205Y4249202D02*
Y4350802D01*
X9250805D01*
Y4249202D01*
X9149205D01*
X9199205Y4149202D02*
Y4250802D01*
X9300805D01*
Y4149202D01*
X9199205D01*
X9149205Y4049202D02*
Y4150802D01*
X9250805D01*
Y4049202D01*
X9149205D01*
X9199205Y3949202D02*
Y4050802D01*
X9300805D01*
Y3949202D01*
X9199205D01*
X9149205Y3849202D02*
Y3950802D01*
X9250805D01*
Y3849202D01*
X9149205D01*
X9199205Y3749202D02*
Y3850802D01*
X9300805D01*
Y3749202D01*
X9199205D01*
X9149205Y3649202D02*
Y3750802D01*
X9250805D01*
Y3649202D01*
X9149205D01*
X9049205Y4449202D02*
Y4550802D01*
X9150805D01*
Y4449202D01*
X9049205D01*
X9099205Y4349202D02*
Y4450802D01*
X9200805D01*
Y4349202D01*
X9099205D01*
X9049205Y4249202D02*
Y4350802D01*
X9150805D01*
Y4249202D01*
X9049205D01*
X9099205Y4149202D02*
Y4250802D01*
X9200805D01*
Y4149202D01*
X9099205D01*
X9049205Y4049202D02*
Y4150802D01*
X9150805D01*
Y4049202D01*
X9049205D01*
X9099205Y3949202D02*
Y4050802D01*
X9200805D01*
Y3949202D01*
X9099205D01*
X9049205Y3849202D02*
Y3950802D01*
X9150805D01*
Y3849202D01*
X9049205D01*
X9099205Y3749202D02*
Y3850802D01*
X9200805D01*
Y3749202D01*
X9099205D01*
X9049205Y3649202D02*
Y3750802D01*
X9150805D01*
Y3649202D01*
X9049205D01*
X8999205Y4349202D02*
Y4450802D01*
X9100805D01*
Y4349202D01*
X8999205D01*
X8949205Y4249202D02*
Y4350802D01*
X9050805D01*
Y4249202D01*
X8949205D01*
X8999205Y4149202D02*
Y4250802D01*
X9100805D01*
Y4149202D01*
X8999205D01*
X8949205Y4049202D02*
Y4150802D01*
X9050805D01*
Y4049202D01*
X8949205D01*
X8999205Y3949202D02*
Y4050802D01*
X9100805D01*
Y3949202D01*
X8999205D01*
X8949205Y3849202D02*
Y3950802D01*
X9050805D01*
Y3849202D01*
X8949205D01*
X8999205Y3749202D02*
Y3850802D01*
X9100805D01*
Y3749202D01*
X8999205D01*
X8949205Y3649202D02*
Y3750802D01*
X9050805D01*
Y3649202D01*
X8949205D01*
X8849205Y4249202D02*
Y4350802D01*
X8950805D01*
Y4249202D01*
X8849205D01*
X8899205Y4149202D02*
Y4250802D01*
X9000805D01*
Y4149202D01*
X8899205D01*
X8849205Y4049202D02*
Y4150802D01*
X8950805D01*
Y4049202D01*
X8849205D01*
X8899205Y3949202D02*
Y4050802D01*
X9000805D01*
Y3949202D01*
X8899205D01*
X8849205Y3849202D02*
Y3950802D01*
X8950805D01*
Y3849202D01*
X8849205D01*
X8899205Y3749202D02*
Y3850802D01*
X9000805D01*
Y3749202D01*
X8899205D01*
X8849205Y3649202D02*
Y3750802D01*
X8950805D01*
Y3649202D01*
X8849205D01*
X8799205Y4149202D02*
Y4250802D01*
X8900805D01*
Y4149202D01*
X8799205D01*
X8749205Y4049202D02*
Y4150802D01*
X8850805D01*
Y4049202D01*
X8749205D01*
X8799205Y3949202D02*
Y4050802D01*
X8900805D01*
Y3949202D01*
X8799205D01*
X8749205Y3849202D02*
Y3950802D01*
X8850805D01*
Y3849202D01*
X8749205D01*
X8799205Y3749202D02*
Y3850802D01*
X8900805D01*
Y3749202D01*
X8799205D01*
X8749205Y3649202D02*
Y3750802D01*
X8850805D01*
Y3649202D01*
X8749205D01*
X8649205Y4249202D02*
Y4350802D01*
X8750805D01*
Y4249202D01*
X8649205D01*
X8699205Y4149202D02*
Y4250802D01*
X8800805D01*
Y4149202D01*
X8699205D01*
X8649205Y4049202D02*
Y4150802D01*
X8750805D01*
Y4049202D01*
X8649205D01*
X8699205Y3949202D02*
Y4050802D01*
X8800805D01*
Y3949202D01*
X8699205D01*
X8649205Y3849202D02*
Y3950802D01*
X8750805D01*
Y3849202D01*
X8649205D01*
X8699205Y3749202D02*
Y3850802D01*
X8800805D01*
Y3749202D01*
X8699205D01*
X8649205Y3649202D02*
Y3750802D01*
X8750805D01*
Y3649202D01*
X8649205D01*
X8549205Y4249202D02*
Y4350802D01*
X8650805D01*
Y4249202D01*
X8549205D01*
X8599205Y4149202D02*
Y4250802D01*
X8700805D01*
Y4149202D01*
X8599205D01*
X8549205Y4049202D02*
Y4150802D01*
X8650805D01*
Y4049202D01*
X8549205D01*
X8599205Y3949202D02*
Y4050802D01*
X8700805D01*
Y3949202D01*
X8599205D01*
X8549205Y3849202D02*
Y3950802D01*
X8650805D01*
Y3849202D01*
X8549205D01*
X8599205Y3749202D02*
Y3850802D01*
X8700805D01*
Y3749202D01*
X8599205D01*
X8549205Y3649202D02*
Y3750802D01*
X8650805D01*
Y3649202D01*
X8549205D01*
X8449205Y5049203D02*
Y5150803D01*
X8550805D01*
Y5049203D01*
X8449205D01*
Y4849203D02*
Y4950803D01*
X8550805D01*
Y4849203D01*
X8449205D01*
Y4649203D02*
Y4750803D01*
X8550805D01*
Y4649203D01*
X8449205D01*
Y4449202D02*
Y4550802D01*
X8550805D01*
Y4449202D01*
X8449205D01*
X8499204Y4349202D02*
Y4450802D01*
X8600804D01*
Y4349202D01*
X8499204D01*
X8449205Y4249202D02*
Y4350802D01*
X8550805D01*
Y4249202D01*
X8449205D01*
X8499204Y4149202D02*
Y4250802D01*
X8600804D01*
Y4149202D01*
X8499204D01*
X8449205Y4049202D02*
Y4150802D01*
X8550805D01*
Y4049202D01*
X8449205D01*
X8499204Y3949202D02*
Y4050802D01*
X8600804D01*
Y3949202D01*
X8499204D01*
X8449205Y3849202D02*
Y3950802D01*
X8550805D01*
Y3849202D01*
X8449205D01*
X8499204Y3749202D02*
Y3850802D01*
X8600804D01*
Y3749202D01*
X8499204D01*
X8449205Y3649202D02*
Y3750802D01*
X8550805D01*
Y3649202D01*
X8449205D01*
X8349205Y5049203D02*
Y5150803D01*
X8450805D01*
Y5049203D01*
X8349205D01*
X8399204Y4949203D02*
Y5050803D01*
X8500804D01*
Y4949203D01*
X8399204D01*
X8349205Y4849203D02*
Y4950803D01*
X8450805D01*
Y4849203D01*
X8349205D01*
X8399204Y4749203D02*
Y4850803D01*
X8500804D01*
Y4749203D01*
X8399204D01*
X8349205Y4649203D02*
Y4750803D01*
X8450805D01*
Y4649203D01*
X8349205D01*
X8399204Y4549202D02*
Y4650802D01*
X8500804D01*
Y4549202D01*
X8399204D01*
Y4349202D02*
Y4450802D01*
X8500804D01*
Y4349202D01*
X8399204D01*
X8349205Y4249202D02*
Y4350802D01*
X8450805D01*
Y4249202D01*
X8349205D01*
X8399204Y4149202D02*
Y4250802D01*
X8500804D01*
Y4149202D01*
X8399204D01*
X8349205Y4049202D02*
Y4150802D01*
X8450805D01*
Y4049202D01*
X8349205D01*
X8399204Y3949202D02*
Y4050802D01*
X8500804D01*
Y3949202D01*
X8399204D01*
X8349205Y3849202D02*
Y3950802D01*
X8450805D01*
Y3849202D01*
X8349205D01*
X8399204Y3749202D02*
Y3850802D01*
X8500804D01*
Y3749202D01*
X8399204D01*
X8349205Y3649202D02*
Y3750802D01*
X8450805D01*
Y3649202D01*
X8349205D01*
X8249204Y5049203D02*
Y5150803D01*
X8350804D01*
Y5049203D01*
X8249204D01*
X8299204Y4949203D02*
Y5050803D01*
X8400804D01*
Y4949203D01*
X8299204D01*
X8249204Y4849203D02*
Y4950803D01*
X8350804D01*
Y4849203D01*
X8249204D01*
X8299204Y4749203D02*
Y4850803D01*
X8400804D01*
Y4749203D01*
X8299204D01*
X8249204Y4649203D02*
Y4750803D01*
X8350804D01*
Y4649203D01*
X8249204D01*
Y4049202D02*
Y4150802D01*
X8350804D01*
Y4049202D01*
X8249204D01*
X8299204Y3949202D02*
Y4050802D01*
X8400804D01*
Y3949202D01*
X8299204D01*
X8249204Y3849202D02*
Y3950802D01*
X8350804D01*
Y3849202D01*
X8249204D01*
X8299204Y3749202D02*
Y3850802D01*
X8400804D01*
Y3749202D01*
X8299204D01*
X8249204Y3649202D02*
Y3750802D01*
X8350804D01*
Y3649202D01*
X8249204D01*
X8149204Y5049203D02*
Y5150803D01*
X8250804D01*
Y5049203D01*
X8149204D01*
X8199204Y4949203D02*
Y5050803D01*
X8300804D01*
Y4949203D01*
X8199204D01*
X8149204Y4849203D02*
Y4950803D01*
X8250804D01*
Y4849203D01*
X8149204D01*
Y4049202D02*
Y4150802D01*
X8250804D01*
Y4049202D01*
X8149204D01*
X8199204Y3949202D02*
Y4050802D01*
X8300804D01*
Y3949202D01*
X8199204D01*
X8149204Y3849202D02*
Y3950802D01*
X8250804D01*
Y3849202D01*
X8149204D01*
X8199204Y3749202D02*
Y3850802D01*
X8300804D01*
Y3749202D01*
X8199204D01*
X8149204Y3649202D02*
Y3750802D01*
X8250804D01*
Y3649202D01*
X8149204D01*
X10106700Y5179200D02*
Y5280800D01*
X10208300D01*
Y5179200D01*
X10106700D01*
X11811700Y5626700D02*
Y5728300D01*
X11913300D01*
Y5626700D01*
X11811700D01*
X9506700Y5291700D02*
Y5393300D01*
X9608300D01*
Y5291700D01*
X9506700D01*
X9189200Y5094200D02*
Y5195800D01*
X9290800D01*
Y5094200D01*
X9189200D01*
X10094200Y5561700D02*
Y5663300D01*
X10195800D01*
Y5561700D01*
X10094200D01*
X8149200Y4624200D02*
Y4725800D01*
X8250800D01*
Y4624200D01*
X8149200D01*
X8371700Y4451700D02*
Y4553300D01*
X8473300D01*
Y4451700D01*
X8371700D01*
X8144200Y4271700D02*
Y4373300D01*
X8245800D01*
Y4271700D01*
X8144200D01*
X8751700Y4281700D02*
Y4383300D01*
X8853300D01*
Y4281700D01*
X8751700D01*
X10099200Y5724200D02*
Y5825800D01*
X10200800D01*
Y5724200D01*
X10099200D01*
X10376700Y5276700D02*
Y5378300D01*
X10478300D01*
Y5276700D01*
X10376700D01*
X10176700Y5191700D02*
Y5293300D01*
X10278300D01*
Y5191700D01*
X10176700D01*
X10256700Y5116700D02*
Y5218300D01*
X10358300D01*
Y5116700D01*
X10256700D01*
X10106700Y4926700D02*
Y5028300D01*
X10208300D01*
Y4926700D01*
X10106700D01*
X10469200Y4999200D02*
Y5100800D01*
X10570800D01*
Y4999200D01*
X10469200D01*
X10321700Y4929200D02*
Y5030800D01*
X10423300D01*
Y4929200D01*
X10321700D01*
X10324200Y4776700D02*
Y4878300D01*
X10425800D01*
Y4776700D01*
X10324200D01*
X10471700Y4566700D02*
Y4668300D01*
X10573300D01*
Y4566700D01*
X10471700D01*
X11294200Y4236700D02*
Y4338300D01*
X11395800D01*
Y4236700D01*
X11294200D01*
X11749200Y4276700D02*
Y4378300D01*
X11850800D01*
Y4276700D01*
X11749200D01*
X11524200Y4381700D02*
Y4483300D01*
X11625800D01*
Y4381700D01*
X11524200D01*
Y4451700D02*
Y4553300D01*
X11625800D01*
Y4451700D01*
X11524200D01*
X11749200Y4621700D02*
Y4723300D01*
X11850800D01*
Y4621700D01*
X11749200D01*
X11784200Y4904200D02*
Y5005800D01*
X11885800D01*
Y4904200D01*
X11784200D01*
X11636700Y4774200D02*
Y4875800D01*
X11738300D01*
Y4774200D01*
X11636700D01*
%TF.MD5,7a9642f92df604a89dd46282b3352770*%
M02*
