%TF.GenerationSoftware,Altium Limited,Altium Designer,24.7.2 (38)*%
G04 Layer_Physical_Order=1*
G04 Layer_Color=255*
%FSLAX45Y45*%
%MOMM*%
%TF.SameCoordinates,665F1D1F-C803-44D7-9F74-9D0A5895F251*%
%TF.FilePolarity,Positive*%
%TF.FileFunction,Copper,L1,Top,Signal*%
%TF.Part,Single*%
G01*
G75*
%TA.AperFunction,SMDPad,CuDef*%
%ADD10R,1.05814X1.36213*%
%ADD11R,1.20000X1.20000*%
%ADD12O,3.00000X2.00000*%
%TA.AperFunction,ConnectorPad*%
%ADD13R,1.45000X1.30000*%
%TA.AperFunction,SMDPad,CuDef*%
%ADD14R,2.90415X1.70273*%
%ADD15R,2.41300X3.42900*%
%ADD16R,1.30000X1.45000*%
%ADD17R,0.80650X1.30822*%
%ADD18R,1.45000X0.95000*%
%ADD19R,2.18000X1.62000*%
%ADD20R,1.53971X0.56583*%
G04:AMPARAMS|DCode=21|XSize=1.53971mm|YSize=0.56583mm|CornerRadius=0.28292mm|HoleSize=0mm|Usage=FLASHONLY|Rotation=0.000|XOffset=0mm|YOffset=0mm|HoleType=Round|Shape=RoundedRectangle|*
%AMROUNDEDRECTD21*
21,1,1.53971,0.00000,0,0,0.0*
21,1,0.97388,0.56583,0,0,0.0*
1,1,0.56583,0.48694,0.00000*
1,1,0.56583,-0.48694,0.00000*
1,1,0.56583,-0.48694,0.00000*
1,1,0.56583,0.48694,0.00000*
%
%ADD21ROUNDEDRECTD21*%
%ADD22R,0.95000X1.35000*%
%ADD23R,1.35000X0.95000*%
%ADD24R,1.70273X2.90415*%
%ADD25R,0.95312X2.80415*%
%ADD26R,3.14960X1.95580*%
%TA.AperFunction,Conductor*%
%ADD27C,0.25400*%
%TA.AperFunction,ViaPad*%
%ADD28C,0.35000*%
G36*
X10380000Y5846500D02*
X10331700D01*
Y5748600D01*
Y5650700D01*
X10380000D01*
Y5480299D01*
X10377728Y5480227D01*
X10375775Y5479344D01*
X10373675Y5478926D01*
X10371216Y5477283D01*
X10368520Y5476064D01*
X10367521Y5475000D01*
X10354160D01*
X10365820Y5492451D01*
X10367461Y5500700D01*
X10266550D01*
Y5513400D01*
X10253850D01*
Y5568143D01*
X10240000D01*
Y5650700D01*
X10306300D01*
Y5748600D01*
Y5846500D01*
X10240000D01*
Y5890000D01*
X10380000D01*
Y5846500D01*
D02*
G37*
G36*
X9914104Y5912700D02*
X9979829D01*
Y5900000D01*
X9992529D01*
Y5809189D01*
X10042500D01*
Y5567091D01*
X10036150D01*
Y5513400D01*
X10023450D01*
Y5500700D01*
X9921064D01*
Y5472500D01*
X9717500D01*
Y5507100D01*
X9742300D01*
Y5600000D01*
Y5692900D01*
X9717500D01*
Y5742100D01*
X9779800D01*
Y5814999D01*
Y5887900D01*
X9717500D01*
Y5915000D01*
X9914104D01*
Y5912700D01*
D02*
G37*
G36*
X9419102Y6470000D02*
Y5632500D01*
X8522500D01*
Y5322500D01*
X8198986Y5315898D01*
X8032500Y5315897D01*
Y5405413D01*
X8057900Y5414035D01*
X8060564Y5410563D01*
X8086759Y5390463D01*
X8117264Y5377828D01*
X8150000Y5373518D01*
X8187300D01*
Y5500000D01*
Y5626482D01*
X8150000D01*
X8117264Y5622172D01*
X8086759Y5609537D01*
X8060564Y5589436D01*
X8057900Y5585965D01*
X8032500Y5594587D01*
Y6250000D01*
Y6272160D01*
X8041146Y6315630D01*
X8058108Y6356577D01*
X8082731Y6393429D01*
X8114071Y6424769D01*
X8150922Y6449392D01*
X8191870Y6466353D01*
X8235339Y6475000D01*
X9414999D01*
X9419102Y6470000D01*
D02*
G37*
G36*
X9613811Y5373474D02*
X9623077Y5359947D01*
X9624525Y5354153D01*
X9624102Y5352061D01*
X9624110Y5352025D01*
X9624102Y5351989D01*
Y5312900D01*
X9575200D01*
Y5215000D01*
Y5117100D01*
X9624102D01*
Y5082500D01*
X9090000D01*
Y5345000D01*
X9134784Y5345344D01*
X9157100Y5320115D01*
Y5277700D01*
X9250000D01*
X9342900D01*
Y5316700D01*
X9342900Y5337900D01*
X9364485Y5347111D01*
X9415000Y5347500D01*
Y5379553D01*
X9607318D01*
X9613811Y5373474D01*
D02*
G37*
G36*
X11035000Y5075000D02*
X10645898D01*
Y5221550D01*
X10754600D01*
Y5405700D01*
X10621250D01*
Y5391923D01*
X10620000Y5390898D01*
X10389665D01*
X10373550Y5405700D01*
X10266550D01*
Y5431100D01*
X10368694D01*
X10383586Y5455000D01*
X10407500D01*
Y5650700D01*
X10466299D01*
Y5748600D01*
Y5846500D01*
X10407500D01*
Y5890000D01*
X11035000D01*
Y5075000D01*
D02*
G37*
G36*
X11687500Y6321007D02*
X11632501D01*
Y6227500D01*
Y6133994D01*
X11687500D01*
Y5615000D01*
X11670145Y5596788D01*
X11660564Y5589436D01*
X11640463Y5563241D01*
X11627828Y5532736D01*
X11625190Y5512700D01*
X11800000D01*
Y5500000D01*
X11812700D01*
Y5373518D01*
X11850000D01*
X11882736Y5377828D01*
X11913241Y5390463D01*
X11939436Y5410563D01*
X11942100Y5414035D01*
X11967500Y5405413D01*
Y5062500D01*
X11785400D01*
Y5102300D01*
X11687500D01*
X11589600D01*
Y5024600D01*
Y4867103D01*
X11589102Y4864600D01*
Y4600000D01*
X10650000D01*
Y5032500D01*
X11065000Y5045000D01*
Y5927500D01*
X10250000D01*
Y6017500D01*
X9905000D01*
X9890400Y6036853D01*
Y6082900D01*
X9805200D01*
Y6009999D01*
X9792500D01*
Y5997299D01*
X9694600D01*
Y5962500D01*
X9680000D01*
Y5717430D01*
X9677900Y5692900D01*
X9654600Y5692900D01*
X9617700D01*
Y5600000D01*
Y5507100D01*
X9665971Y5507100D01*
X9676155Y5481700D01*
X9665661Y5462500D01*
X9445000D01*
Y6470000D01*
X11687500D01*
Y6321007D01*
D02*
G37*
G36*
X9052500Y5047500D02*
X9665000D01*
Y5117100D01*
X9709800D01*
Y5214999D01*
Y5312900D01*
X9665000D01*
Y5351906D01*
X9683010Y5369816D01*
X9909806Y5368556D01*
X9924003Y5344646D01*
X9923927Y5343077D01*
X9922539Y5336100D01*
X10023450D01*
Y5323400D01*
X10036150D01*
Y5268656D01*
X10072144D01*
X10076202Y5269464D01*
X10081761Y5267940D01*
X10101602Y5250286D01*
Y4615000D01*
X8555598D01*
X8555469Y4615194D01*
X8555000Y4617551D01*
Y5290000D01*
Y5587500D01*
X9052500D01*
Y5047500D01*
D02*
G37*
G36*
X10162701Y5809189D02*
X10212500D01*
Y5570000D01*
X10162500D01*
Y5365000D01*
X10162500Y5365000D01*
X10166336Y5339600D01*
X10165639Y5336100D01*
X10367461D01*
X10366765Y5339600D01*
X10375844Y5356707D01*
X10382570Y5365000D01*
X10620000D01*
Y4995607D01*
X10532681D01*
Y4825001D01*
Y4654393D01*
X10620000D01*
Y4557500D01*
X11150857D01*
X11174392Y4552997D01*
X11174392Y4532100D01*
Y4455161D01*
X11344999D01*
X11515607D01*
Y4532100D01*
X11515608Y4552997D01*
X11539143Y4557500D01*
X11610592D01*
X11630166Y4538382D01*
X11627828Y4532736D01*
X11625190Y4512700D01*
X11787300D01*
Y4626482D01*
X11750000D01*
X11717264Y4622172D01*
X11686759Y4609537D01*
X11660564Y4589436D01*
X11640463Y4563241D01*
X11640400Y4563088D01*
X11615000Y4568140D01*
Y4864600D01*
X11674800D01*
Y4955000D01*
X11687500D01*
Y4967700D01*
X11785400D01*
Y5030000D01*
X11972500D01*
X11972500Y4588071D01*
X11947100Y4579449D01*
X11939436Y4589436D01*
X11913241Y4609537D01*
X11882736Y4622172D01*
X11850000Y4626482D01*
X11812700D01*
Y4500000D01*
Y4373518D01*
X11850000D01*
X11882736Y4377828D01*
X11913241Y4390463D01*
X11939436Y4410563D01*
X11947100Y4420550D01*
X11972500Y4411928D01*
X11972500Y3745000D01*
X11972500Y3723578D01*
X11964142Y3681557D01*
X11947747Y3641974D01*
X11923944Y3606350D01*
X11893649Y3576055D01*
X11858026Y3552252D01*
X11818443Y3535857D01*
X11776422Y3527499D01*
X11755000Y3527500D01*
X8247500D01*
X8225259Y3527499D01*
X8181638Y3536208D01*
X8140566Y3553288D01*
X8103633Y3578079D01*
X8072269Y3609622D01*
X8047687Y3646694D01*
X8030839Y3687862D01*
X8022377Y3731532D01*
X8022504Y3753773D01*
X8026242Y4413569D01*
X8051691Y4422127D01*
X8060564Y4410563D01*
X8086759Y4390463D01*
X8117264Y4377828D01*
X8150000Y4373518D01*
X8187300D01*
Y4500000D01*
Y4626482D01*
X8150000D01*
X8117264Y4622172D01*
X8086759Y4609537D01*
X8060564Y4589436D01*
X8052580Y4579031D01*
X8027228Y4587717D01*
X8031207Y5290000D01*
X8529102Y5290000D01*
Y4615000D01*
X8531074Y4605089D01*
X8536688Y4596688D01*
X8537500Y4596144D01*
Y4557500D01*
X8665600D01*
Y4501700D01*
X8800000D01*
X8934400D01*
Y4557500D01*
X10127500D01*
Y5262500D01*
Y5570000D01*
X10070000D01*
Y5789702D01*
X10084275Y5809189D01*
X10137301D01*
Y5900000D01*
X10162701D01*
Y5809189D01*
D02*
G37*
%LPC*%
G36*
X10315244Y5568143D02*
X10279250D01*
Y5526100D01*
X10367461D01*
X10365820Y5534349D01*
X10353953Y5552109D01*
X10336193Y5563976D01*
X10315244Y5568143D01*
D02*
G37*
G36*
X9890400Y5887900D02*
X9805200D01*
Y5827699D01*
X9890400D01*
Y5887900D01*
D02*
G37*
G36*
X9967129Y5887300D02*
X9914104D01*
Y5809189D01*
X9967129D01*
Y5887300D01*
D02*
G37*
G36*
X9890400Y5802299D02*
X9805200D01*
Y5742100D01*
X9890400D01*
Y5802299D01*
D02*
G37*
G36*
X9827900Y5692900D02*
X9767700D01*
Y5612700D01*
X9827900D01*
Y5692900D01*
D02*
G37*
G36*
X10010750Y5567091D02*
X9921064D01*
Y5526100D01*
X10010750D01*
Y5567091D01*
D02*
G37*
G36*
X9827900Y5587300D02*
X9767700D01*
Y5507100D01*
X9827900D01*
Y5587300D01*
D02*
G37*
G36*
X8982880Y5968300D02*
X8812700D01*
Y5857810D01*
X8982880D01*
Y5968300D01*
D02*
G37*
G36*
X8787300D02*
X8617120D01*
Y5857810D01*
X8787300D01*
Y5968300D01*
D02*
G37*
G36*
X8982880Y5832410D02*
X8812700D01*
Y5721920D01*
X8982880D01*
Y5832410D01*
D02*
G37*
G36*
X8787300D02*
X8617120D01*
Y5721920D01*
X8787300D01*
Y5832410D01*
D02*
G37*
G36*
X8250000Y5626482D02*
X8212700D01*
Y5512700D01*
X8374810D01*
X8372172Y5532736D01*
X8359537Y5563241D01*
X8339436Y5589436D01*
X8313241Y5609537D01*
X8282736Y5622172D01*
X8250000Y5626482D01*
D02*
G37*
G36*
X8374810Y5487300D02*
X8212700D01*
Y5373518D01*
X8250000D01*
X8282736Y5377828D01*
X8313241Y5390463D01*
X8339436Y5410563D01*
X8359537Y5436759D01*
X8372172Y5467264D01*
X8374810Y5487300D01*
D02*
G37*
G36*
X9549800Y5312900D02*
X9472100D01*
Y5227700D01*
X9549800D01*
Y5312900D01*
D02*
G37*
G36*
X9342900Y5252300D02*
X9262700D01*
Y5192100D01*
X9342900D01*
Y5252300D01*
D02*
G37*
G36*
X9237300D02*
X9157100D01*
Y5192100D01*
X9237300D01*
Y5252300D01*
D02*
G37*
G36*
X9549800Y5202300D02*
X9472100D01*
Y5117100D01*
X9549800D01*
Y5202300D01*
D02*
G37*
G36*
X10569400Y5846500D02*
X10491699D01*
Y5761300D01*
X10569400D01*
Y5846500D01*
D02*
G37*
G36*
Y5735900D02*
X10491699D01*
Y5650700D01*
X10569400D01*
Y5735900D01*
D02*
G37*
G36*
X10913350Y5615250D02*
X10780000D01*
Y5431100D01*
X10913350D01*
Y5615250D01*
D02*
G37*
G36*
X10754600D02*
X10621250D01*
Y5431100D01*
X10754600D01*
Y5615250D01*
D02*
G37*
G36*
X10913350Y5405700D02*
X10780000D01*
Y5221550D01*
X10913350D01*
Y5405700D01*
D02*
G37*
G36*
X11607101Y6321007D02*
X11541494D01*
Y6240200D01*
X11607101D01*
Y6321007D01*
D02*
G37*
G36*
Y6214800D02*
X11541494D01*
Y6133994D01*
X11607101D01*
Y6214800D01*
D02*
G37*
G36*
X9779800Y6082900D02*
X9694600D01*
Y6022699D01*
X9779800D01*
Y6082900D01*
D02*
G37*
G36*
X9592300Y5692900D02*
X9532100D01*
Y5612700D01*
X9592300D01*
Y5692900D01*
D02*
G37*
G36*
Y5587300D02*
X9532100D01*
Y5507100D01*
X9592300D01*
Y5587300D01*
D02*
G37*
G36*
X11497550Y5615250D02*
X11364200D01*
Y5431100D01*
X11497550D01*
Y5615250D01*
D02*
G37*
G36*
X11338800D02*
X11205450D01*
Y5431100D01*
X11338800D01*
Y5615250D01*
D02*
G37*
G36*
X11787300Y5487300D02*
X11625190D01*
X11627828Y5467264D01*
X11640463Y5436759D01*
X11660564Y5410563D01*
X11686759Y5390463D01*
X11717264Y5377828D01*
X11750000Y5373518D01*
X11787300D01*
Y5487300D01*
D02*
G37*
G36*
X11497550Y5405700D02*
X11364200D01*
Y5221550D01*
X11497550D01*
Y5405700D01*
D02*
G37*
G36*
X11338800D02*
X11205450D01*
Y5221550D01*
X11338800D01*
Y5405700D01*
D02*
G37*
G36*
X11785400Y5205400D02*
X11700200D01*
Y5127700D01*
X11785400D01*
Y5205400D01*
D02*
G37*
G36*
X11674800D02*
X11589600D01*
Y5127700D01*
X11674800D01*
Y5205400D01*
D02*
G37*
G36*
X10940556Y4995607D02*
X10842719D01*
Y4837701D01*
X10940556D01*
Y4995607D01*
D02*
G37*
G36*
X10817319D02*
X10719483D01*
Y4837701D01*
X10817319D01*
Y4995607D01*
D02*
G37*
G36*
X11515607Y4863036D02*
X11357699D01*
Y4765200D01*
X11515607D01*
Y4863036D01*
D02*
G37*
G36*
X11332299D02*
X11174392D01*
Y4765200D01*
X11332299D01*
Y4863036D01*
D02*
G37*
G36*
X10940556Y4812301D02*
X10842719D01*
Y4654393D01*
X10940556D01*
Y4812301D01*
D02*
G37*
G36*
X10817319D02*
X10719483D01*
Y4654393D01*
X10817319D01*
Y4812301D01*
D02*
G37*
G36*
X11515607Y4739800D02*
X11357699D01*
Y4641964D01*
X11515607D01*
Y4739800D01*
D02*
G37*
G36*
X11332299D02*
X11174392D01*
Y4641964D01*
X11332299D01*
Y4739800D01*
D02*
G37*
G36*
X8982880Y5478080D02*
X8812700D01*
Y5367590D01*
X8982880D01*
Y5478080D01*
D02*
G37*
G36*
X8787300D02*
X8617120D01*
Y5367590D01*
X8787300D01*
Y5478080D01*
D02*
G37*
G36*
X10010750Y5310700D02*
X9922539D01*
X9924180Y5302450D01*
X9936047Y5284690D01*
X9953807Y5272824D01*
X9974756Y5268656D01*
X10010750D01*
Y5310700D01*
D02*
G37*
G36*
X8982880Y5342190D02*
X8812700D01*
Y5231700D01*
X8982880D01*
Y5342190D01*
D02*
G37*
G36*
X8787300D02*
X8617120D01*
Y5231700D01*
X8787300D01*
Y5342190D01*
D02*
G37*
G36*
X9812900Y5312900D02*
X9735200D01*
Y5227699D01*
X9812900D01*
Y5312900D01*
D02*
G37*
G36*
Y5202299D02*
X9735200D01*
Y5117100D01*
X9812900D01*
Y5202299D01*
D02*
G37*
G36*
X10005556Y5140607D02*
X9945200D01*
Y4987700D01*
X10005556D01*
Y5140607D01*
D02*
G37*
G36*
X9919800D02*
X9859444D01*
Y4987700D01*
X9919800D01*
Y5140607D01*
D02*
G37*
G36*
X8934400Y5017400D02*
X8812700D01*
Y4923700D01*
X8934400D01*
Y5017400D01*
D02*
G37*
G36*
X8787300D02*
X8665600D01*
Y4923700D01*
X8787300D01*
Y5017400D01*
D02*
G37*
G36*
X10005556Y4962300D02*
X9945200D01*
Y4809392D01*
X10005556D01*
Y4962300D01*
D02*
G37*
G36*
X9919800D02*
X9859444D01*
Y4809392D01*
X9919800D01*
Y4962300D01*
D02*
G37*
G36*
X8934400Y4898300D02*
X8812700D01*
Y4804600D01*
X8934400D01*
Y4898300D01*
D02*
G37*
G36*
X8787300D02*
X8665600D01*
Y4804600D01*
X8787300D01*
Y4898300D01*
D02*
G37*
G36*
X10367461Y5310700D02*
X10279250D01*
Y5268656D01*
X10315244D01*
X10336193Y5272824D01*
X10353953Y5284690D01*
X10365820Y5302450D01*
X10367461Y5310700D01*
D02*
G37*
G36*
X10253850D02*
X10165639D01*
X10167280Y5302450D01*
X10179147Y5284690D01*
X10196907Y5272824D01*
X10217856Y5268656D01*
X10253850D01*
Y5310700D01*
D02*
G37*
G36*
X10340556Y5140607D02*
X10280200D01*
Y4987700D01*
X10340556D01*
Y5140607D01*
D02*
G37*
G36*
X10254800D02*
X10194444D01*
Y4987700D01*
X10254800D01*
Y5140607D01*
D02*
G37*
G36*
X11785400Y4942300D02*
X11700200D01*
Y4864600D01*
X11785400D01*
Y4942300D01*
D02*
G37*
G36*
X10507281Y4995607D02*
X10409444D01*
Y4837701D01*
X10507281D01*
Y4995607D01*
D02*
G37*
G36*
X10340556Y4962300D02*
X10280200D01*
Y4809392D01*
X10340556D01*
Y4962300D01*
D02*
G37*
G36*
X10254800D02*
X10194444D01*
Y4809392D01*
X10254800D01*
Y4962300D01*
D02*
G37*
G36*
X10507281Y4812301D02*
X10409444D01*
Y4654393D01*
X10507281D01*
Y4812301D01*
D02*
G37*
G36*
X8250000Y4626482D02*
X8212700D01*
Y4512700D01*
X8374810D01*
X8372172Y4532736D01*
X8359537Y4563241D01*
X8339436Y4589436D01*
X8313241Y4609537D01*
X8282736Y4622172D01*
X8250000Y4626482D01*
D02*
G37*
G36*
X8934400Y4476300D02*
X8812700D01*
Y4382600D01*
X8934400D01*
Y4476300D01*
D02*
G37*
G36*
X8787300D02*
X8665600D01*
Y4382600D01*
X8787300D01*
Y4476300D01*
D02*
G37*
G36*
X11787300Y4487300D02*
X11625190D01*
X11627828Y4467264D01*
X11640463Y4436759D01*
X11660564Y4410563D01*
X11686759Y4390463D01*
X11717264Y4377828D01*
X11750000Y4373518D01*
X11787300D01*
Y4487300D01*
D02*
G37*
G36*
X8374810D02*
X8212700D01*
Y4373518D01*
X8250000D01*
X8282736Y4377828D01*
X8313241Y4390463D01*
X8339436Y4410563D01*
X8359537Y4436759D01*
X8372172Y4467264D01*
X8374810Y4487300D01*
D02*
G37*
G36*
X11515607Y4429761D02*
X11357699D01*
Y4331925D01*
X11515607D01*
Y4429761D01*
D02*
G37*
G36*
X11332299D02*
X11174392D01*
Y4331925D01*
X11332299D01*
Y4429761D01*
D02*
G37*
%LPD*%
D10*
X11795199Y6227500D02*
D03*
X11619801D02*
D03*
D11*
X11800000Y5785000D02*
D03*
Y5995000D02*
D03*
D12*
Y5500000D02*
D03*
Y4500000D02*
D03*
X8200000D02*
D03*
Y5500000D02*
D03*
D13*
X11687500Y4955000D02*
D03*
Y5115000D02*
D03*
D14*
X11345000Y4752500D02*
D03*
Y4442461D02*
D03*
D15*
X10767300Y5418400D02*
D03*
X11351500D02*
D03*
D16*
X10479000Y5748600D02*
D03*
X10319000D02*
D03*
X9562500Y5215000D02*
D03*
X9722500D02*
D03*
D17*
X10150000Y5900000D02*
D03*
X9979829D02*
D03*
D18*
X9792500Y5815000D02*
D03*
Y6010000D02*
D03*
D19*
X8800000Y4489000D02*
D03*
Y4911000D02*
D03*
D20*
X10023450Y5513400D02*
D03*
D21*
Y5418400D02*
D03*
Y5323400D02*
D03*
X10266550D02*
D03*
Y5418400D02*
D03*
Y5513400D02*
D03*
D22*
X9605000Y5600000D02*
D03*
X9755000D02*
D03*
D23*
X9250000Y5415000D02*
D03*
Y5265000D02*
D03*
D24*
X10830019Y4825000D02*
D03*
X10519980D02*
D03*
D25*
X9932500Y4975000D02*
D03*
X10267500D02*
D03*
D26*
X8800000Y5354890D02*
D03*
Y5845110D02*
D03*
D27*
X11800000Y5785000D02*
X11847300Y5737700D01*
Y5695298D02*
X11862500Y5680098D01*
X11847300Y5695298D02*
Y5737700D01*
X11862500Y5677500D02*
Y5680098D01*
X10267500Y4975000D02*
Y4977500D01*
X11800000Y5995000D02*
Y6227500D01*
X11795199D02*
X11800000D01*
X9250000Y5418400D02*
X10023450D01*
X9250000Y5415000D02*
Y5418400D01*
D28*
X10270000Y4757500D02*
D03*
X8645000Y4520000D02*
D03*
X8957500Y4522500D02*
D03*
X11850006Y4800003D02*
D03*
X11800006Y4100002D02*
D03*
X11850006Y4000002D02*
D03*
X11800006Y3900002D02*
D03*
X11850006Y3800002D02*
D03*
X11800006Y3700002D02*
D03*
X11750006Y4800003D02*
D03*
X11700006Y4700003D02*
D03*
Y4100002D02*
D03*
X11750006Y4000002D02*
D03*
X11700006Y3900002D02*
D03*
X11750006Y3800002D02*
D03*
X11700006Y3700002D02*
D03*
X11600006Y4300002D02*
D03*
Y4100002D02*
D03*
X11650006Y4000002D02*
D03*
X11600006Y3900002D02*
D03*
X11650006Y3800002D02*
D03*
X11600006Y3700002D02*
D03*
X11500006Y4300002D02*
D03*
X11550006Y4200002D02*
D03*
X11500006Y4100002D02*
D03*
X11550006Y4000002D02*
D03*
X11500006Y3900002D02*
D03*
X11550006Y3800002D02*
D03*
X11500006Y3700002D02*
D03*
X11450006Y4200002D02*
D03*
X11400006Y4100002D02*
D03*
X11450006Y4000002D02*
D03*
X11400006Y3900002D02*
D03*
X11450006Y3800002D02*
D03*
X11400006Y3700002D02*
D03*
X11350006Y4200002D02*
D03*
X11300006Y4100002D02*
D03*
X11350006Y4000002D02*
D03*
X11300006Y3900002D02*
D03*
X11350006Y3800002D02*
D03*
X11300006Y3700002D02*
D03*
X11200006Y4300002D02*
D03*
X11250006Y4200002D02*
D03*
X11200006Y4100002D02*
D03*
X11250006Y4000002D02*
D03*
X11200006Y3900002D02*
D03*
X11250006Y3800002D02*
D03*
X11200006Y3700002D02*
D03*
X11100006Y4500002D02*
D03*
X11150006Y4400002D02*
D03*
X11100006Y4300002D02*
D03*
X11150006Y4200002D02*
D03*
X11100006Y4100002D02*
D03*
X11150006Y4000002D02*
D03*
X11100006Y3900002D02*
D03*
X11150006Y3800002D02*
D03*
X11100006Y3700002D02*
D03*
X11000006Y4500002D02*
D03*
X11050006Y4400002D02*
D03*
X11000006Y4300002D02*
D03*
X11050006Y4200002D02*
D03*
X11000006Y4100002D02*
D03*
X11050006Y4000002D02*
D03*
X11000006Y3900002D02*
D03*
X11050006Y3800002D02*
D03*
X11000006Y3700002D02*
D03*
X10900006Y4500002D02*
D03*
X10950006Y4400002D02*
D03*
X10900006Y4300002D02*
D03*
X10950006Y4200002D02*
D03*
X10900006Y4100002D02*
D03*
X10950006Y4000002D02*
D03*
X10900006Y3900002D02*
D03*
X10950006Y3800002D02*
D03*
X10900006Y3700002D02*
D03*
X10800006Y4500002D02*
D03*
X10850006Y4400002D02*
D03*
X10800006Y4300002D02*
D03*
X10850006Y4200002D02*
D03*
X10800006Y4100002D02*
D03*
X10850006Y4000002D02*
D03*
X10800006Y3900002D02*
D03*
X10850006Y3800002D02*
D03*
X10800006Y3700002D02*
D03*
X10750006Y4400002D02*
D03*
X10700006Y4300002D02*
D03*
X10750006Y4200002D02*
D03*
X10700006Y4100002D02*
D03*
X10750006Y4000002D02*
D03*
X10700006Y3900002D02*
D03*
X10750006Y3800002D02*
D03*
X10700006Y3700002D02*
D03*
X10600006Y5300003D02*
D03*
Y5100003D02*
D03*
X10650006Y4400002D02*
D03*
X10600006Y4300002D02*
D03*
X10650006Y4200002D02*
D03*
X10600006Y4100002D02*
D03*
X10650006Y4000002D02*
D03*
X10600006Y3900002D02*
D03*
X10650006Y3800002D02*
D03*
X10600006Y3700002D02*
D03*
X10500006Y5300003D02*
D03*
X10550006Y5200003D02*
D03*
X10500006Y5100003D02*
D03*
Y4500002D02*
D03*
X10550006Y4400002D02*
D03*
X10500006Y4300002D02*
D03*
X10550006Y4200002D02*
D03*
X10500006Y4100002D02*
D03*
X10550006Y4000002D02*
D03*
X10500006Y3900002D02*
D03*
X10550006Y3800002D02*
D03*
X10500006Y3700002D02*
D03*
X10450006Y5200003D02*
D03*
X10400006Y5100003D02*
D03*
X10450006Y4600002D02*
D03*
X10400006Y4500002D02*
D03*
X10450006Y4400002D02*
D03*
X10400006Y4300002D02*
D03*
X10450006Y4200002D02*
D03*
X10400006Y4100002D02*
D03*
X10450006Y4000002D02*
D03*
X10400006Y3900002D02*
D03*
X10450006Y3800002D02*
D03*
X10400006Y3700002D02*
D03*
X10350005Y5200003D02*
D03*
Y4600002D02*
D03*
X10300006Y4500002D02*
D03*
X10350005Y4400002D02*
D03*
X10300006Y4300002D02*
D03*
X10350005Y4200002D02*
D03*
X10300006Y4100002D02*
D03*
X10350005Y4000002D02*
D03*
X10300006Y3900002D02*
D03*
X10350005Y3800002D02*
D03*
X10300006Y3700002D02*
D03*
X10250005Y5200003D02*
D03*
Y4600002D02*
D03*
X10200006Y4500002D02*
D03*
X10250005Y4400002D02*
D03*
X10200006Y4300002D02*
D03*
X10250005Y4200002D02*
D03*
X10200006Y4100002D02*
D03*
X10250005Y4000002D02*
D03*
X10200006Y3900002D02*
D03*
X10250005Y3800002D02*
D03*
X10200006Y3700002D02*
D03*
X10100005Y5700003D02*
D03*
X10150005Y4800003D02*
D03*
X10100005Y4500002D02*
D03*
X10150005Y4400002D02*
D03*
X10100005Y4300002D02*
D03*
X10150005Y4200002D02*
D03*
X10100005Y4100002D02*
D03*
X10150005Y4000002D02*
D03*
X10100005Y3900002D02*
D03*
X10150005Y3800002D02*
D03*
X10100005Y3700002D02*
D03*
X10000005Y4500002D02*
D03*
X10050005Y4400002D02*
D03*
X10000005Y4300002D02*
D03*
X10050005Y4200002D02*
D03*
X10000005Y4100002D02*
D03*
X10050005Y4000002D02*
D03*
X10000005Y3900002D02*
D03*
X10050005Y3800002D02*
D03*
X10000005Y3700002D02*
D03*
X9900005Y4500002D02*
D03*
X9950005Y4400002D02*
D03*
X9900005Y4300002D02*
D03*
X9950005Y4200002D02*
D03*
X9900005Y4100002D02*
D03*
X9950005Y4000002D02*
D03*
X9900005Y3900002D02*
D03*
X9950005Y3800002D02*
D03*
X9900005Y3700002D02*
D03*
X9800005Y4500002D02*
D03*
X9850005Y4400002D02*
D03*
X9800005Y4300002D02*
D03*
X9850005Y4200002D02*
D03*
X9800005Y4100002D02*
D03*
X9850005Y4000002D02*
D03*
X9800005Y3900002D02*
D03*
X9850005Y3800002D02*
D03*
X9800005Y3700002D02*
D03*
X9700005Y4500002D02*
D03*
X9750005Y4400002D02*
D03*
X9700005Y4300002D02*
D03*
X9750005Y4200002D02*
D03*
X9700005Y4100002D02*
D03*
X9750005Y4000002D02*
D03*
X9700005Y3900002D02*
D03*
X9750005Y3800002D02*
D03*
X9700005Y3700002D02*
D03*
X9600005Y4500002D02*
D03*
X9650005Y4400002D02*
D03*
X9600005Y4300002D02*
D03*
X9650005Y4200002D02*
D03*
X9600005Y4100002D02*
D03*
X9650005Y4000002D02*
D03*
X9600005Y3900002D02*
D03*
X9650005Y3800002D02*
D03*
X9600005Y3700002D02*
D03*
X9500005Y4500002D02*
D03*
X9550005Y4400002D02*
D03*
X9500005Y4300002D02*
D03*
X9550005Y4200002D02*
D03*
X9500005Y4100002D02*
D03*
X9550005Y4000002D02*
D03*
X9500005Y3900002D02*
D03*
X9550005Y3800002D02*
D03*
X9500005Y3700002D02*
D03*
X9400005Y5300003D02*
D03*
X9450005Y5200003D02*
D03*
X9400005Y5100003D02*
D03*
Y4500002D02*
D03*
X9450005Y4400002D02*
D03*
X9400005Y4300002D02*
D03*
X9450005Y4200002D02*
D03*
X9400005Y4100002D02*
D03*
X9450005Y4000002D02*
D03*
X9400005Y3900002D02*
D03*
X9450005Y3800002D02*
D03*
X9400005Y3700002D02*
D03*
X9300005Y5100003D02*
D03*
Y4500002D02*
D03*
X9350005Y4400002D02*
D03*
X9300005Y4300002D02*
D03*
X9350005Y4200002D02*
D03*
X9300005Y4100002D02*
D03*
X9350005Y4000002D02*
D03*
X9300005Y3900002D02*
D03*
X9350005Y3800002D02*
D03*
X9300005Y3700002D02*
D03*
X9200005Y4500002D02*
D03*
X9250005Y4400002D02*
D03*
X9200005Y4300002D02*
D03*
X9250005Y4200002D02*
D03*
X9200005Y4100002D02*
D03*
X9250005Y4000002D02*
D03*
X9200005Y3900002D02*
D03*
X9250005Y3800002D02*
D03*
X9200005Y3700002D02*
D03*
X9100005Y4500002D02*
D03*
X9150005Y4400002D02*
D03*
X9100005Y4300002D02*
D03*
X9150005Y4200002D02*
D03*
X9100005Y4100002D02*
D03*
X9150005Y4000002D02*
D03*
X9100005Y3900002D02*
D03*
X9150005Y3800002D02*
D03*
X9100005Y3700002D02*
D03*
X9050005Y4400002D02*
D03*
X9000005Y4300002D02*
D03*
X9050005Y4200002D02*
D03*
X9000005Y4100002D02*
D03*
X9050005Y4000002D02*
D03*
X9000005Y3900002D02*
D03*
X9050005Y3800002D02*
D03*
X9000005Y3700002D02*
D03*
X8900005Y4300002D02*
D03*
X8950005Y4200002D02*
D03*
X8900005Y4100002D02*
D03*
X8950005Y4000002D02*
D03*
X8900005Y3900002D02*
D03*
X8950005Y3800002D02*
D03*
X8900005Y3700002D02*
D03*
X8850005Y4200002D02*
D03*
X8800005Y4100002D02*
D03*
X8850005Y4000002D02*
D03*
X8800005Y3900002D02*
D03*
X8850005Y3800002D02*
D03*
X8800005Y3700002D02*
D03*
X8700005Y4300002D02*
D03*
X8750005Y4200002D02*
D03*
X8700005Y4100002D02*
D03*
X8750005Y4000002D02*
D03*
X8700005Y3900002D02*
D03*
X8750005Y3800002D02*
D03*
X8700005Y3700002D02*
D03*
X8600005Y4300002D02*
D03*
X8650005Y4200002D02*
D03*
X8600005Y4100002D02*
D03*
X8650005Y4000002D02*
D03*
X8600005Y3900002D02*
D03*
X8650005Y3800002D02*
D03*
X8600005Y3700002D02*
D03*
X8500005Y5100003D02*
D03*
Y4900003D02*
D03*
Y4700003D02*
D03*
Y4500002D02*
D03*
X8550004Y4400002D02*
D03*
X8500005Y4300002D02*
D03*
X8550004Y4200002D02*
D03*
X8500005Y4100002D02*
D03*
X8550004Y4000002D02*
D03*
X8500005Y3900002D02*
D03*
X8550004Y3800002D02*
D03*
X8500005Y3700002D02*
D03*
X8400005Y5100003D02*
D03*
X8450004Y5000003D02*
D03*
X8400005Y4900003D02*
D03*
X8450004Y4800003D02*
D03*
X8400005Y4700003D02*
D03*
X8450004Y4600002D02*
D03*
Y4400002D02*
D03*
X8400005Y4300002D02*
D03*
X8450004Y4200002D02*
D03*
X8400005Y4100002D02*
D03*
X8450004Y4000002D02*
D03*
X8400005Y3900002D02*
D03*
X8450004Y3800002D02*
D03*
X8400005Y3700002D02*
D03*
X8300004Y5100003D02*
D03*
X8350004Y5000003D02*
D03*
X8300004Y4900003D02*
D03*
X8350004Y4800003D02*
D03*
X8300004Y4700003D02*
D03*
Y4100002D02*
D03*
X8350004Y4000002D02*
D03*
X8300004Y3900002D02*
D03*
X8350004Y3800002D02*
D03*
X8300004Y3700002D02*
D03*
X8200004Y5100003D02*
D03*
X8250004Y5000003D02*
D03*
X8200004Y4900003D02*
D03*
Y4100002D02*
D03*
X8250004Y4000002D02*
D03*
X8200004Y3900002D02*
D03*
X8250004Y3800002D02*
D03*
X8200004Y3700002D02*
D03*
X10157500Y5230000D02*
D03*
X11862500Y5677500D02*
D03*
X9557500Y5342500D02*
D03*
X9240000Y5145000D02*
D03*
X10145000Y5612500D02*
D03*
X8200000Y4675000D02*
D03*
X8422500Y4502500D02*
D03*
X8195000Y4322500D02*
D03*
X8802500Y4332500D02*
D03*
X10150000Y5775000D02*
D03*
X10427500Y5327500D02*
D03*
X10227500Y5242500D02*
D03*
X10307500Y5167500D02*
D03*
X10157500Y4977500D02*
D03*
X10520000Y5050000D02*
D03*
X10372500Y4980000D02*
D03*
X10375000Y4827500D02*
D03*
X10522500Y4617500D02*
D03*
X11345000Y4287500D02*
D03*
X11800000Y4327500D02*
D03*
X11575000Y4432500D02*
D03*
Y4502500D02*
D03*
X11800000Y4672500D02*
D03*
X11835000Y4955000D02*
D03*
X11687500Y4825000D02*
D03*
%TF.MD5,d0f44c91775e1343c2d349ce7c5db0ba*%
M02*
