%TF.GenerationSoftware,Altium Limited,Altium Designer,24.7.2 (38)*%
G04 Layer_Color=16711935*
%FSLAX45Y45*%
%MOMM*%
%TF.SameCoordinates,665F1D1F-C803-44D7-9F74-9D0A5895F251*%
%TF.FilePolarity,Negative*%
%TF.FileFunction,Soldermask,Bot*%
%TF.Part,Single*%
G01*
G75*
%TA.AperFunction,ViaPad*%
%ADD35C,0.55320*%
D35*
X10270000Y4757500D02*
D03*
X8645000Y4520000D02*
D03*
X8957500Y4522500D02*
D03*
X11850006Y4800003D02*
D03*
X11800006Y4100002D02*
D03*
X11850006Y4000002D02*
D03*
X11800006Y3900002D02*
D03*
X11850006Y3800002D02*
D03*
X11800006Y3700002D02*
D03*
X11750006Y4800003D02*
D03*
X11700006Y4700003D02*
D03*
Y4100002D02*
D03*
X11750006Y4000002D02*
D03*
X11700006Y3900002D02*
D03*
X11750006Y3800002D02*
D03*
X11700006Y3700002D02*
D03*
X11600006Y4300002D02*
D03*
Y4100002D02*
D03*
X11650006Y4000002D02*
D03*
X11600006Y3900002D02*
D03*
X11650006Y3800002D02*
D03*
X11600006Y3700002D02*
D03*
X11500006Y4300002D02*
D03*
X11550006Y4200002D02*
D03*
X11500006Y4100002D02*
D03*
X11550006Y4000002D02*
D03*
X11500006Y3900002D02*
D03*
X11550006Y3800002D02*
D03*
X11500006Y3700002D02*
D03*
X11450006Y4200002D02*
D03*
X11400006Y4100002D02*
D03*
X11450006Y4000002D02*
D03*
X11400006Y3900002D02*
D03*
X11450006Y3800002D02*
D03*
X11400006Y3700002D02*
D03*
X11350006Y4200002D02*
D03*
X11300006Y4100002D02*
D03*
X11350006Y4000002D02*
D03*
X11300006Y3900002D02*
D03*
X11350006Y3800002D02*
D03*
X11300006Y3700002D02*
D03*
X11200006Y4300002D02*
D03*
X11250006Y4200002D02*
D03*
X11200006Y4100002D02*
D03*
X11250006Y4000002D02*
D03*
X11200006Y3900002D02*
D03*
X11250006Y3800002D02*
D03*
X11200006Y3700002D02*
D03*
X11100006Y4500002D02*
D03*
X11150006Y4400002D02*
D03*
X11100006Y4300002D02*
D03*
X11150006Y4200002D02*
D03*
X11100006Y4100002D02*
D03*
X11150006Y4000002D02*
D03*
X11100006Y3900002D02*
D03*
X11150006Y3800002D02*
D03*
X11100006Y3700002D02*
D03*
X11000006Y4500002D02*
D03*
X11050006Y4400002D02*
D03*
X11000006Y4300002D02*
D03*
X11050006Y4200002D02*
D03*
X11000006Y4100002D02*
D03*
X11050006Y4000002D02*
D03*
X11000006Y3900002D02*
D03*
X11050006Y3800002D02*
D03*
X11000006Y3700002D02*
D03*
X10900006Y4500002D02*
D03*
X10950006Y4400002D02*
D03*
X10900006Y4300002D02*
D03*
X10950006Y4200002D02*
D03*
X10900006Y4100002D02*
D03*
X10950006Y4000002D02*
D03*
X10900006Y3900002D02*
D03*
X10950006Y3800002D02*
D03*
X10900006Y3700002D02*
D03*
X10800006Y4500002D02*
D03*
X10850006Y4400002D02*
D03*
X10800006Y4300002D02*
D03*
X10850006Y4200002D02*
D03*
X10800006Y4100002D02*
D03*
X10850006Y4000002D02*
D03*
X10800006Y3900002D02*
D03*
X10850006Y3800002D02*
D03*
X10800006Y3700002D02*
D03*
X10750006Y4400002D02*
D03*
X10700006Y4300002D02*
D03*
X10750006Y4200002D02*
D03*
X10700006Y4100002D02*
D03*
X10750006Y4000002D02*
D03*
X10700006Y3900002D02*
D03*
X10750006Y3800002D02*
D03*
X10700006Y3700002D02*
D03*
X10600006Y5300003D02*
D03*
Y5100003D02*
D03*
X10650006Y4400002D02*
D03*
X10600006Y4300002D02*
D03*
X10650006Y4200002D02*
D03*
X10600006Y4100002D02*
D03*
X10650006Y4000002D02*
D03*
X10600006Y3900002D02*
D03*
X10650006Y3800002D02*
D03*
X10600006Y3700002D02*
D03*
X10500006Y5300003D02*
D03*
X10550006Y5200003D02*
D03*
X10500006Y5100003D02*
D03*
Y4500002D02*
D03*
X10550006Y4400002D02*
D03*
X10500006Y4300002D02*
D03*
X10550006Y4200002D02*
D03*
X10500006Y4100002D02*
D03*
X10550006Y4000002D02*
D03*
X10500006Y3900002D02*
D03*
X10550006Y3800002D02*
D03*
X10500006Y3700002D02*
D03*
X10450006Y5200003D02*
D03*
X10400006Y5100003D02*
D03*
X10450006Y4600002D02*
D03*
X10400006Y4500002D02*
D03*
X10450006Y4400002D02*
D03*
X10400006Y4300002D02*
D03*
X10450006Y4200002D02*
D03*
X10400006Y4100002D02*
D03*
X10450006Y4000002D02*
D03*
X10400006Y3900002D02*
D03*
X10450006Y3800002D02*
D03*
X10400006Y3700002D02*
D03*
X10350005Y5200003D02*
D03*
Y4600002D02*
D03*
X10300006Y4500002D02*
D03*
X10350005Y4400002D02*
D03*
X10300006Y4300002D02*
D03*
X10350005Y4200002D02*
D03*
X10300006Y4100002D02*
D03*
X10350005Y4000002D02*
D03*
X10300006Y3900002D02*
D03*
X10350005Y3800002D02*
D03*
X10300006Y3700002D02*
D03*
X10250005Y5200003D02*
D03*
Y4600002D02*
D03*
X10200006Y4500002D02*
D03*
X10250005Y4400002D02*
D03*
X10200006Y4300002D02*
D03*
X10250005Y4200002D02*
D03*
X10200006Y4100002D02*
D03*
X10250005Y4000002D02*
D03*
X10200006Y3900002D02*
D03*
X10250005Y3800002D02*
D03*
X10200006Y3700002D02*
D03*
X10100005Y5700003D02*
D03*
X10150005Y4800003D02*
D03*
X10100005Y4500002D02*
D03*
X10150005Y4400002D02*
D03*
X10100005Y4300002D02*
D03*
X10150005Y4200002D02*
D03*
X10100005Y4100002D02*
D03*
X10150005Y4000002D02*
D03*
X10100005Y3900002D02*
D03*
X10150005Y3800002D02*
D03*
X10100005Y3700002D02*
D03*
X10000005Y4500002D02*
D03*
X10050005Y4400002D02*
D03*
X10000005Y4300002D02*
D03*
X10050005Y4200002D02*
D03*
X10000005Y4100002D02*
D03*
X10050005Y4000002D02*
D03*
X10000005Y3900002D02*
D03*
X10050005Y3800002D02*
D03*
X10000005Y3700002D02*
D03*
X9900005Y4500002D02*
D03*
X9950005Y4400002D02*
D03*
X9900005Y4300002D02*
D03*
X9950005Y4200002D02*
D03*
X9900005Y4100002D02*
D03*
X9950005Y4000002D02*
D03*
X9900005Y3900002D02*
D03*
X9950005Y3800002D02*
D03*
X9900005Y3700002D02*
D03*
X9800005Y4500002D02*
D03*
X9850005Y4400002D02*
D03*
X9800005Y4300002D02*
D03*
X9850005Y4200002D02*
D03*
X9800005Y4100002D02*
D03*
X9850005Y4000002D02*
D03*
X9800005Y3900002D02*
D03*
X9850005Y3800002D02*
D03*
X9800005Y3700002D02*
D03*
X9700005Y4500002D02*
D03*
X9750005Y4400002D02*
D03*
X9700005Y4300002D02*
D03*
X9750005Y4200002D02*
D03*
X9700005Y4100002D02*
D03*
X9750005Y4000002D02*
D03*
X9700005Y3900002D02*
D03*
X9750005Y3800002D02*
D03*
X9700005Y3700002D02*
D03*
X9600005Y4500002D02*
D03*
X9650005Y4400002D02*
D03*
X9600005Y4300002D02*
D03*
X9650005Y4200002D02*
D03*
X9600005Y4100002D02*
D03*
X9650005Y4000002D02*
D03*
X9600005Y3900002D02*
D03*
X9650005Y3800002D02*
D03*
X9600005Y3700002D02*
D03*
X9500005Y4500002D02*
D03*
X9550005Y4400002D02*
D03*
X9500005Y4300002D02*
D03*
X9550005Y4200002D02*
D03*
X9500005Y4100002D02*
D03*
X9550005Y4000002D02*
D03*
X9500005Y3900002D02*
D03*
X9550005Y3800002D02*
D03*
X9500005Y3700002D02*
D03*
X9400005Y5300003D02*
D03*
X9450005Y5200003D02*
D03*
X9400005Y5100003D02*
D03*
Y4500002D02*
D03*
X9450005Y4400002D02*
D03*
X9400005Y4300002D02*
D03*
X9450005Y4200002D02*
D03*
X9400005Y4100002D02*
D03*
X9450005Y4000002D02*
D03*
X9400005Y3900002D02*
D03*
X9450005Y3800002D02*
D03*
X9400005Y3700002D02*
D03*
X9300005Y5100003D02*
D03*
Y4500002D02*
D03*
X9350005Y4400002D02*
D03*
X9300005Y4300002D02*
D03*
X9350005Y4200002D02*
D03*
X9300005Y4100002D02*
D03*
X9350005Y4000002D02*
D03*
X9300005Y3900002D02*
D03*
X9350005Y3800002D02*
D03*
X9300005Y3700002D02*
D03*
X9200005Y4500002D02*
D03*
X9250005Y4400002D02*
D03*
X9200005Y4300002D02*
D03*
X9250005Y4200002D02*
D03*
X9200005Y4100002D02*
D03*
X9250005Y4000002D02*
D03*
X9200005Y3900002D02*
D03*
X9250005Y3800002D02*
D03*
X9200005Y3700002D02*
D03*
X9100005Y4500002D02*
D03*
X9150005Y4400002D02*
D03*
X9100005Y4300002D02*
D03*
X9150005Y4200002D02*
D03*
X9100005Y4100002D02*
D03*
X9150005Y4000002D02*
D03*
X9100005Y3900002D02*
D03*
X9150005Y3800002D02*
D03*
X9100005Y3700002D02*
D03*
X9050005Y4400002D02*
D03*
X9000005Y4300002D02*
D03*
X9050005Y4200002D02*
D03*
X9000005Y4100002D02*
D03*
X9050005Y4000002D02*
D03*
X9000005Y3900002D02*
D03*
X9050005Y3800002D02*
D03*
X9000005Y3700002D02*
D03*
X8900005Y4300002D02*
D03*
X8950005Y4200002D02*
D03*
X8900005Y4100002D02*
D03*
X8950005Y4000002D02*
D03*
X8900005Y3900002D02*
D03*
X8950005Y3800002D02*
D03*
X8900005Y3700002D02*
D03*
X8850005Y4200002D02*
D03*
X8800005Y4100002D02*
D03*
X8850005Y4000002D02*
D03*
X8800005Y3900002D02*
D03*
X8850005Y3800002D02*
D03*
X8800005Y3700002D02*
D03*
X8700005Y4300002D02*
D03*
X8750005Y4200002D02*
D03*
X8700005Y4100002D02*
D03*
X8750005Y4000002D02*
D03*
X8700005Y3900002D02*
D03*
X8750005Y3800002D02*
D03*
X8700005Y3700002D02*
D03*
X8600005Y4300002D02*
D03*
X8650005Y4200002D02*
D03*
X8600005Y4100002D02*
D03*
X8650005Y4000002D02*
D03*
X8600005Y3900002D02*
D03*
X8650005Y3800002D02*
D03*
X8600005Y3700002D02*
D03*
X8500005Y5100003D02*
D03*
Y4900003D02*
D03*
Y4700003D02*
D03*
Y4500002D02*
D03*
X8550004Y4400002D02*
D03*
X8500005Y4300002D02*
D03*
X8550004Y4200002D02*
D03*
X8500005Y4100002D02*
D03*
X8550004Y4000002D02*
D03*
X8500005Y3900002D02*
D03*
X8550004Y3800002D02*
D03*
X8500005Y3700002D02*
D03*
X8400005Y5100003D02*
D03*
X8450004Y5000003D02*
D03*
X8400005Y4900003D02*
D03*
X8450004Y4800003D02*
D03*
X8400005Y4700003D02*
D03*
X8450004Y4600002D02*
D03*
Y4400002D02*
D03*
X8400005Y4300002D02*
D03*
X8450004Y4200002D02*
D03*
X8400005Y4100002D02*
D03*
X8450004Y4000002D02*
D03*
X8400005Y3900002D02*
D03*
X8450004Y3800002D02*
D03*
X8400005Y3700002D02*
D03*
X8300004Y5100003D02*
D03*
X8350004Y5000003D02*
D03*
X8300004Y4900003D02*
D03*
X8350004Y4800003D02*
D03*
X8300004Y4700003D02*
D03*
Y4100002D02*
D03*
X8350004Y4000002D02*
D03*
X8300004Y3900002D02*
D03*
X8350004Y3800002D02*
D03*
X8300004Y3700002D02*
D03*
X8200004Y5100003D02*
D03*
X8250004Y5000003D02*
D03*
X8200004Y4900003D02*
D03*
Y4100002D02*
D03*
X8250004Y4000002D02*
D03*
X8200004Y3900002D02*
D03*
X8250004Y3800002D02*
D03*
X8200004Y3700002D02*
D03*
X10157500Y5230000D02*
D03*
X11862500Y5677500D02*
D03*
X9557500Y5342500D02*
D03*
X9240000Y5145000D02*
D03*
X10145000Y5612500D02*
D03*
X8200000Y4675000D02*
D03*
X8422500Y4502500D02*
D03*
X8195000Y4322500D02*
D03*
X8802500Y4332500D02*
D03*
X10150000Y5775000D02*
D03*
X10427500Y5327500D02*
D03*
X10227500Y5242500D02*
D03*
X10307500Y5167500D02*
D03*
X10157500Y4977500D02*
D03*
X10520000Y5050000D02*
D03*
X10372500Y4980000D02*
D03*
X10375000Y4827500D02*
D03*
X10522500Y4617500D02*
D03*
X11345000Y4287500D02*
D03*
X11800000Y4327500D02*
D03*
X11575000Y4432500D02*
D03*
Y4502500D02*
D03*
X11800000Y4672500D02*
D03*
X11835000Y4955000D02*
D03*
X11687500Y4825000D02*
D03*
%TF.MD5,32213580248fc0fe675c23234aaf6901*%
M02*
