%TF.GenerationSoftware,Altium Limited,Altium Designer,24.7.2 (38)*%
G04 Layer_Color=65535*
%FSLAX45Y45*%
%MOMM*%
%TF.SameCoordinates,665F1D1F-C803-44D7-9F74-9D0A5895F251*%
%TF.FilePolarity,Positive*%
%TF.FileFunction,Legend,Top*%
%TF.Part,Single*%
G01*
G75*
%TA.AperFunction,NonConductor*%
%ADD29C,0.25000*%
%ADD30C,0.20000*%
%ADD31C,0.25400*%
D29*
X11812500Y5670000D02*
G03*
X11812500Y5670000I-12500J0D01*
G01*
X9908965Y5513400D02*
G03*
X9908965Y5513400I-12500J0D01*
G01*
D30*
X11566894Y6335607D02*
X11848107D01*
X11566894Y6119393D02*
X11848107D01*
X11732500Y5882500D02*
Y5897500D01*
X11867500Y5882500D02*
Y5897500D01*
X11199792Y4557597D02*
Y4637364D01*
X11490207Y4557597D02*
Y4637364D01*
X10723200Y5754600D02*
X11395600D01*
Y5082200D02*
Y5209450D01*
Y5627350D02*
Y5754600D01*
X10723200Y5082200D02*
X11395600D01*
X10723200D02*
Y5209450D01*
Y5627350D02*
Y5754600D01*
X10057654Y5837500D02*
X10072175D01*
X10057654Y5962500D02*
X10072175D01*
X9722500Y5900000D02*
Y5925000D01*
X9862500Y5900000D02*
Y5925000D01*
X8602500Y4470000D02*
Y4930000D01*
X8946500D02*
X8997500D01*
X8602500D02*
X8653500D01*
X8997500Y4470000D02*
Y4930000D01*
X8946500Y4470000D02*
X8997500D01*
X8602500D02*
X8653500D01*
X10139565Y5563400D02*
X10150435D01*
X10139565Y5273400D02*
Y5563400D01*
Y5273400D02*
X10150435D01*
Y5563400D01*
X9570000Y5707500D02*
X9790000D01*
X9570000Y5492500D02*
X9790000D01*
X9357500Y5230000D02*
Y5450000D01*
X9142500Y5230000D02*
Y5450000D01*
X10635117Y4970207D02*
X10714883D01*
X10635117Y4679793D02*
X10714883D01*
X10010156Y4834792D02*
X10189844D01*
X10010156Y5115207D02*
X10189844D01*
X8653000Y5490180D02*
Y5709820D01*
X8947000Y5490180D02*
Y5709820D01*
D31*
X11654545Y5359529D02*
X11587900D01*
Y5309545D01*
X11621223Y5326207D01*
X11637884D01*
X11654545Y5309545D01*
Y5276223D01*
X11637884Y5259561D01*
X11604561D01*
X11587900Y5276223D01*
X11687868Y5359529D02*
Y5292884D01*
X11721190Y5259561D01*
X11754513Y5292884D01*
Y5359529D01*
X11787836Y5242900D02*
X11854481D01*
X11937787Y5359529D02*
X11904465D01*
X11887804Y5342868D01*
Y5276223D01*
X11904465Y5259561D01*
X11937787D01*
X11954449Y5276223D01*
Y5342868D01*
X11937787Y5359529D01*
X8097045Y5232061D02*
X8030400D01*
X8097045Y5298706D01*
Y5315368D01*
X8080384Y5332029D01*
X8047061D01*
X8030400Y5315368D01*
X8180352Y5232061D02*
Y5332029D01*
X8130368Y5282045D01*
X8197013D01*
X8230336Y5332029D02*
Y5265384D01*
X8263658Y5232061D01*
X8296981Y5265384D01*
Y5332029D01*
X8330303Y5215400D02*
X8396948D01*
X8430271Y5332029D02*
X8463594D01*
X8446933D01*
Y5232061D01*
X8430271D01*
X8463594D01*
X8513578D02*
Y5332029D01*
X8580223Y5232061D01*
Y5332029D01*
X11739545Y4263706D02*
X11722884Y4280368D01*
X11689561D01*
X11672900Y4263706D01*
Y4197061D01*
X11689561Y4180400D01*
X11722884D01*
X11739545Y4197061D01*
Y4230384D01*
X11706222D01*
X11772868Y4180400D02*
Y4280368D01*
X11839513Y4180400D01*
Y4280368D01*
X11872836D02*
Y4180400D01*
X11922819D01*
X11939481Y4197061D01*
Y4263706D01*
X11922819Y4280368D01*
X11872836D01*
X8144545Y4253707D02*
X8127884Y4270368D01*
X8094561D01*
X8077900Y4253707D01*
Y4187061D01*
X8094561Y4170400D01*
X8127884D01*
X8144545Y4187061D01*
Y4220384D01*
X8111223D01*
X8177868Y4170400D02*
Y4270368D01*
X8244513Y4170400D01*
Y4270368D01*
X8277836D02*
Y4170400D01*
X8327820D01*
X8344481Y4187061D01*
Y4253707D01*
X8327820Y4270368D01*
X8277836D01*
X9943090Y5729629D02*
X9943533Y5646324D01*
X9960283Y5629751D01*
X9993605Y5629928D01*
X10010177Y5646678D01*
X10009735Y5729983D01*
X10043588Y5630194D02*
X10076910Y5630371D01*
X10060249Y5630282D01*
X10059718Y5730249D01*
X10043145Y5713499D01*
X9976694Y6045016D02*
Y6144984D01*
X10026677D01*
X10043339Y6128323D01*
Y6095000D01*
X10026677Y6078339D01*
X9976694D01*
X10010016D02*
X10043339Y6045016D01*
X10076661Y6128323D02*
X10093323Y6144984D01*
X10126645D01*
X10143306Y6128323D01*
Y6111661D01*
X10126645Y6095000D01*
X10109984D01*
X10126645D01*
X10143306Y6078339D01*
Y6061677D01*
X10126645Y6045016D01*
X10093323D01*
X10076661Y6061677D01*
X11289194Y6192516D02*
Y6292484D01*
X11339177D01*
X11355839Y6275823D01*
Y6242500D01*
X11339177Y6225839D01*
X11289194D01*
X11322516D02*
X11355839Y6192516D01*
X11455806D02*
X11389161D01*
X11455806Y6259161D01*
Y6275823D01*
X11439145Y6292484D01*
X11405823D01*
X11389161Y6275823D01*
X9508355Y6040016D02*
Y6139984D01*
X9558339D01*
X9575000Y6123323D01*
Y6090000D01*
X9558339Y6073339D01*
X9508355D01*
X9541677D02*
X9575000Y6040016D01*
X9608323D02*
X9641645D01*
X9624984D01*
Y6139984D01*
X9608323Y6123323D01*
X11003355Y5932484D02*
Y5832516D01*
X11070000D01*
X11103323D02*
X11136645D01*
X11119984D01*
Y5932484D01*
X11103323Y5915823D01*
X8190839Y4857484D02*
X8157516D01*
X8174177D01*
Y4774177D01*
X8157516Y4757516D01*
X8140855D01*
X8124194Y4774177D01*
X8224161Y4840822D02*
X8240823Y4857484D01*
X8274145D01*
X8290806Y4840822D01*
Y4824161D01*
X8274145Y4807500D01*
X8257484D01*
X8274145D01*
X8290806Y4790839D01*
Y4774177D01*
X8274145Y4757516D01*
X8240823D01*
X8224161Y4774177D01*
X8715345Y6140088D02*
X8648700D01*
Y6090104D01*
X8682023D01*
X8648700D01*
Y6040120D01*
X8748668D02*
X8781990D01*
X8765329D01*
Y6140088D01*
X8748668Y6123426D01*
X11491694Y6009984D02*
Y5910016D01*
X11541677D01*
X11558339Y5926678D01*
Y5993323D01*
X11541677Y6009984D01*
X11491694D01*
X11658306Y5910016D02*
X11591661D01*
X11658306Y5976661D01*
Y5993323D01*
X11641645Y6009984D01*
X11608323D01*
X11591661Y5993323D01*
X8615855Y5169984D02*
Y5070016D01*
X8665839D01*
X8682500Y5086677D01*
Y5153322D01*
X8665839Y5169984D01*
X8615855D01*
X8715823Y5070016D02*
X8749145D01*
X8732484D01*
Y5169984D01*
X8715823Y5153322D01*
X9205839Y5648322D02*
X9189177Y5664984D01*
X9155855D01*
X9139194Y5648322D01*
Y5581677D01*
X9155855Y5565016D01*
X9189177D01*
X9205839Y5581677D01*
X9239161Y5648322D02*
X9255823Y5664984D01*
X9289145D01*
X9305806Y5648322D01*
Y5631661D01*
X9289145Y5615000D01*
X9305806Y5598339D01*
Y5581677D01*
X9289145Y5565016D01*
X9255823D01*
X9239161Y5581677D01*
Y5598339D01*
X9255823Y5615000D01*
X9239161Y5631661D01*
Y5648322D01*
X9255823Y5615000D02*
X9289145D01*
X11865839Y5080822D02*
X11849177Y5097484D01*
X11815855D01*
X11799194Y5080822D01*
Y5014177D01*
X11815855Y4997516D01*
X11849177D01*
X11865839Y5014177D01*
X11899161Y5097484D02*
X11965806D01*
Y5080822D01*
X11899161Y5014177D01*
Y4997516D01*
X11320839Y5003322D02*
X11304178Y5019984D01*
X11270855D01*
X11254194Y5003322D01*
Y4936677D01*
X11270855Y4920016D01*
X11304178D01*
X11320839Y4936677D01*
X11420806Y5019984D02*
X11387484Y5003322D01*
X11354161Y4970000D01*
Y4936677D01*
X11370823Y4920016D01*
X11404145D01*
X11420806Y4936677D01*
Y4953339D01*
X11404145Y4970000D01*
X11354161D01*
X10660839Y4545823D02*
X10644178Y4562484D01*
X10610855D01*
X10594194Y4545823D01*
Y4479177D01*
X10610855Y4462516D01*
X10644178D01*
X10660839Y4479177D01*
X10760807Y4562484D02*
X10694161D01*
Y4512500D01*
X10727484Y4529161D01*
X10744145D01*
X10760807Y4512500D01*
Y4479177D01*
X10744145Y4462516D01*
X10710823D01*
X10694161Y4479177D01*
X9440839Y5823323D02*
X9424177Y5839984D01*
X9390855D01*
X9374194Y5823323D01*
Y5756678D01*
X9390855Y5740016D01*
X9424177D01*
X9440839Y5756678D01*
X9524145Y5740016D02*
Y5839984D01*
X9474161Y5790000D01*
X9540806D01*
X10390839Y6020823D02*
X10374177Y6037484D01*
X10340855D01*
X10324193Y6020823D01*
Y5954178D01*
X10340855Y5937516D01*
X10374177D01*
X10390839Y5954178D01*
X10424161Y6020823D02*
X10440823Y6037484D01*
X10474145D01*
X10490806Y6020823D01*
Y6004161D01*
X10474145Y5987500D01*
X10457484D01*
X10474145D01*
X10490806Y5970839D01*
Y5954178D01*
X10474145Y5937516D01*
X10440823D01*
X10424161Y5954178D01*
X10088339Y4718323D02*
X10071678Y4734984D01*
X10038355D01*
X10021694Y4718323D01*
Y4651678D01*
X10038355Y4635016D01*
X10071678D01*
X10088339Y4651678D01*
X10188307Y4635016D02*
X10121661D01*
X10188307Y4701661D01*
Y4718323D01*
X10171645Y4734984D01*
X10138323D01*
X10121661Y4718323D01*
X9637500Y5043322D02*
X9620839Y5059984D01*
X9587516D01*
X9570855Y5043322D01*
Y4976677D01*
X9587516Y4960016D01*
X9620839D01*
X9637500Y4976677D01*
X9670823Y4960016D02*
X9704145D01*
X9687484D01*
Y5059984D01*
X9670823Y5043322D01*
%TF.MD5,f5989170ff15f2fcdccc6e81fc11cfa7*%
M02*
