%TF.GenerationSoftware,Altium Limited,Altium Designer,24.7.2 (38)*%
G04 Layer_Color=0*
%FSLAX45Y45*%
%MOMM*%
%TF.SameCoordinates,665F1D1F-C803-44D7-9F74-9D0A5895F251*%
%TF.FilePolarity,Positive*%
%TF.FileFunction,Other,Top_Component_Center*%
%TF.Part,Single*%
G01*
G75*
%TA.AperFunction,NonConductor*%
%ADD36C,0.10000*%
D36*
X11657500Y6227500D02*
X11757500D01*
X11707500Y6177500D02*
Y6277500D01*
X11800000Y5840000D02*
Y5940000D01*
X11750000Y5890000D02*
X11850000D01*
X11345000Y4547481D02*
Y4647480D01*
X11295000Y4597481D02*
X11395000D01*
X11009400Y5418400D02*
X11109400D01*
X11059400Y5368400D02*
Y5468400D01*
X10014914Y5900000D02*
X10114914D01*
X10064914Y5850000D02*
Y5950000D01*
X9792500Y5862500D02*
Y5962500D01*
X9742500Y5912500D02*
X9842500D01*
X8800000Y4650000D02*
Y4750000D01*
X8750000Y4700000D02*
X8850000D01*
X10095000Y5418400D02*
X10195000D01*
X10145000Y5368400D02*
Y5468400D01*
X9630000Y5600000D02*
X9730000D01*
X9680000Y5550000D02*
Y5650000D01*
X9250000Y5290000D02*
Y5390000D01*
X9200000Y5340000D02*
X9300000D01*
X10625000Y4825000D02*
X10725000D01*
X10675000Y4775000D02*
Y4875000D01*
X10050000Y4975000D02*
X10150000D01*
X10100000Y4925000D02*
Y5025000D01*
X8750000Y5600000D02*
X8850000D01*
X8800000Y5550000D02*
Y5650000D01*
%TF.MD5,1807e59f40435e92771798fd96640d52*%
M02*
