%TF.GenerationSoftware,Altium Limited,Altium Designer,24.7.2 (38)*%
G04 Layer_Color=128*
%FSLAX45Y45*%
%MOMM*%
%TF.SameCoordinates,665F1D1F-C803-44D7-9F74-9D0A5895F251*%
%TF.FilePolarity,Positive*%
%TF.FileFunction,Drillmap*%
%TF.Part,Single*%
G01*
G75*
%TA.AperFunction,NonConductor*%
%ADD41C,0.12700*%
D41*
X10260000Y4757500D02*
X10280000D01*
X10270000Y4747500D02*
Y4767500D01*
X8635000Y4520000D02*
X8655000D01*
X8645000Y4510000D02*
Y4530000D01*
X8947500Y4522500D02*
X8967500D01*
X8957500Y4512500D02*
Y4532500D01*
X11840006Y4800003D02*
X11860006D01*
X11850006Y4790003D02*
Y4810003D01*
X11790006Y4100002D02*
X11810006D01*
X11800006Y4090002D02*
Y4110002D01*
X11840006Y4000002D02*
X11860006D01*
X11850006Y3990002D02*
Y4010002D01*
X11790006Y3900002D02*
X11810006D01*
X11800006Y3890002D02*
Y3910002D01*
X11840006Y3800002D02*
X11860006D01*
X11850006Y3790002D02*
Y3810002D01*
X11790006Y3700002D02*
X11810006D01*
X11800006Y3690002D02*
Y3710002D01*
X11740006Y4800003D02*
X11760006D01*
X11750006Y4790003D02*
Y4810003D01*
X11690006Y4700003D02*
X11710006D01*
X11700006Y4690003D02*
Y4710003D01*
X11690006Y4100002D02*
X11710006D01*
X11700006Y4090002D02*
Y4110002D01*
X11740006Y4000002D02*
X11760006D01*
X11750006Y3990002D02*
Y4010002D01*
X11690006Y3900002D02*
X11710006D01*
X11700006Y3890002D02*
Y3910002D01*
X11740006Y3800002D02*
X11760006D01*
X11750006Y3790002D02*
Y3810002D01*
X11690006Y3700002D02*
X11710006D01*
X11700006Y3690002D02*
Y3710002D01*
X11590006Y4300002D02*
X11610006D01*
X11600006Y4290002D02*
Y4310002D01*
X11590006Y4100002D02*
X11610006D01*
X11600006Y4090002D02*
Y4110002D01*
X11640006Y4000002D02*
X11660006D01*
X11650006Y3990002D02*
Y4010002D01*
X11590006Y3900002D02*
X11610006D01*
X11600006Y3890002D02*
Y3910002D01*
X11640006Y3800002D02*
X11660006D01*
X11650006Y3790002D02*
Y3810002D01*
X11590006Y3700002D02*
X11610006D01*
X11600006Y3690002D02*
Y3710002D01*
X11490006Y4300002D02*
X11510006D01*
X11500006Y4290002D02*
Y4310002D01*
X11540006Y4200002D02*
X11560006D01*
X11550006Y4190002D02*
Y4210002D01*
X11490006Y4100002D02*
X11510006D01*
X11500006Y4090002D02*
Y4110002D01*
X11540006Y4000002D02*
X11560006D01*
X11550006Y3990002D02*
Y4010002D01*
X11490006Y3900002D02*
X11510006D01*
X11500006Y3890002D02*
Y3910002D01*
X11540006Y3800002D02*
X11560006D01*
X11550006Y3790002D02*
Y3810002D01*
X11490006Y3700002D02*
X11510006D01*
X11500006Y3690002D02*
Y3710002D01*
X11440006Y4200002D02*
X11460006D01*
X11450006Y4190002D02*
Y4210002D01*
X11390006Y4100002D02*
X11410006D01*
X11400006Y4090002D02*
Y4110002D01*
X11440006Y4000002D02*
X11460006D01*
X11450006Y3990002D02*
Y4010002D01*
X11390006Y3900002D02*
X11410006D01*
X11400006Y3890002D02*
Y3910002D01*
X11440006Y3800002D02*
X11460006D01*
X11450006Y3790002D02*
Y3810002D01*
X11390006Y3700002D02*
X11410006D01*
X11400006Y3690002D02*
Y3710002D01*
X11340006Y4200002D02*
X11360006D01*
X11350006Y4190002D02*
Y4210002D01*
X11290006Y4100002D02*
X11310006D01*
X11300006Y4090002D02*
Y4110002D01*
X11340006Y4000002D02*
X11360006D01*
X11350006Y3990002D02*
Y4010002D01*
X11290006Y3900002D02*
X11310006D01*
X11300006Y3890002D02*
Y3910002D01*
X11340006Y3800002D02*
X11360006D01*
X11350006Y3790002D02*
Y3810002D01*
X11290006Y3700002D02*
X11310006D01*
X11300006Y3690002D02*
Y3710002D01*
X11190006Y4300002D02*
X11210006D01*
X11200006Y4290002D02*
Y4310002D01*
X11240006Y4200002D02*
X11260006D01*
X11250006Y4190002D02*
Y4210002D01*
X11190006Y4100002D02*
X11210006D01*
X11200006Y4090002D02*
Y4110002D01*
X11240006Y4000002D02*
X11260006D01*
X11250006Y3990002D02*
Y4010002D01*
X11190006Y3900002D02*
X11210006D01*
X11200006Y3890002D02*
Y3910002D01*
X11240006Y3800002D02*
X11260006D01*
X11250006Y3790002D02*
Y3810002D01*
X11190006Y3700002D02*
X11210006D01*
X11200006Y3690002D02*
Y3710002D01*
X11090006Y4500002D02*
X11110006D01*
X11100006Y4490002D02*
Y4510002D01*
X11140006Y4400002D02*
X11160006D01*
X11150006Y4390002D02*
Y4410002D01*
X11090006Y4300002D02*
X11110006D01*
X11100006Y4290002D02*
Y4310002D01*
X11140006Y4200002D02*
X11160006D01*
X11150006Y4190002D02*
Y4210002D01*
X11090006Y4100002D02*
X11110006D01*
X11100006Y4090002D02*
Y4110002D01*
X11140006Y4000002D02*
X11160006D01*
X11150006Y3990002D02*
Y4010002D01*
X11090006Y3900002D02*
X11110006D01*
X11100006Y3890002D02*
Y3910002D01*
X11140006Y3800002D02*
X11160006D01*
X11150006Y3790002D02*
Y3810002D01*
X11090006Y3700002D02*
X11110006D01*
X11100006Y3690002D02*
Y3710002D01*
X10990006Y4500002D02*
X11010006D01*
X11000006Y4490002D02*
Y4510002D01*
X11040006Y4400002D02*
X11060006D01*
X11050006Y4390002D02*
Y4410002D01*
X10990006Y4300002D02*
X11010006D01*
X11000006Y4290002D02*
Y4310002D01*
X11040006Y4200002D02*
X11060006D01*
X11050006Y4190002D02*
Y4210002D01*
X10990006Y4100002D02*
X11010006D01*
X11000006Y4090002D02*
Y4110002D01*
X11040006Y4000002D02*
X11060006D01*
X11050006Y3990002D02*
Y4010002D01*
X10990006Y3900002D02*
X11010006D01*
X11000006Y3890002D02*
Y3910002D01*
X11040006Y3800002D02*
X11060006D01*
X11050006Y3790002D02*
Y3810002D01*
X10990006Y3700002D02*
X11010006D01*
X11000006Y3690002D02*
Y3710002D01*
X10890006Y4500002D02*
X10910006D01*
X10900006Y4490002D02*
Y4510002D01*
X10940006Y4400002D02*
X10960006D01*
X10950006Y4390002D02*
Y4410002D01*
X10890006Y4300002D02*
X10910006D01*
X10900006Y4290002D02*
Y4310002D01*
X10940006Y4200002D02*
X10960006D01*
X10950006Y4190002D02*
Y4210002D01*
X10890006Y4100002D02*
X10910006D01*
X10900006Y4090002D02*
Y4110002D01*
X10940006Y4000002D02*
X10960006D01*
X10950006Y3990002D02*
Y4010002D01*
X10890006Y3900002D02*
X10910006D01*
X10900006Y3890002D02*
Y3910002D01*
X10940006Y3800002D02*
X10960006D01*
X10950006Y3790002D02*
Y3810002D01*
X10890006Y3700002D02*
X10910006D01*
X10900006Y3690002D02*
Y3710002D01*
X10790006Y4500002D02*
X10810006D01*
X10800006Y4490002D02*
Y4510002D01*
X10840006Y4400002D02*
X10860006D01*
X10850006Y4390002D02*
Y4410002D01*
X10790006Y4300002D02*
X10810006D01*
X10800006Y4290002D02*
Y4310002D01*
X10840006Y4200002D02*
X10860006D01*
X10850006Y4190002D02*
Y4210002D01*
X10790006Y4100002D02*
X10810006D01*
X10800006Y4090002D02*
Y4110002D01*
X10840006Y4000002D02*
X10860006D01*
X10850006Y3990002D02*
Y4010002D01*
X10790006Y3900002D02*
X10810006D01*
X10800006Y3890002D02*
Y3910002D01*
X10840006Y3800002D02*
X10860006D01*
X10850006Y3790002D02*
Y3810002D01*
X10790006Y3700002D02*
X10810006D01*
X10800006Y3690002D02*
Y3710002D01*
X10740006Y4400002D02*
X10760006D01*
X10750006Y4390002D02*
Y4410002D01*
X10690006Y4300002D02*
X10710006D01*
X10700006Y4290002D02*
Y4310002D01*
X10740006Y4200002D02*
X10760006D01*
X10750006Y4190002D02*
Y4210002D01*
X10690006Y4100002D02*
X10710006D01*
X10700006Y4090002D02*
Y4110002D01*
X10740006Y4000002D02*
X10760006D01*
X10750006Y3990002D02*
Y4010002D01*
X10690006Y3900002D02*
X10710006D01*
X10700006Y3890002D02*
Y3910002D01*
X10740006Y3800002D02*
X10760006D01*
X10750006Y3790002D02*
Y3810002D01*
X10690006Y3700002D02*
X10710006D01*
X10700006Y3690002D02*
Y3710002D01*
X10590006Y5300003D02*
X10610006D01*
X10600006Y5290003D02*
Y5310003D01*
X10590006Y5100003D02*
X10610006D01*
X10600006Y5090003D02*
Y5110003D01*
X10640006Y4400002D02*
X10660006D01*
X10650006Y4390002D02*
Y4410002D01*
X10590006Y4300002D02*
X10610006D01*
X10600006Y4290002D02*
Y4310002D01*
X10640006Y4200002D02*
X10660006D01*
X10650006Y4190002D02*
Y4210002D01*
X10590006Y4100002D02*
X10610006D01*
X10600006Y4090002D02*
Y4110002D01*
X10640006Y4000002D02*
X10660006D01*
X10650006Y3990002D02*
Y4010002D01*
X10590006Y3900002D02*
X10610006D01*
X10600006Y3890002D02*
Y3910002D01*
X10640006Y3800002D02*
X10660006D01*
X10650006Y3790002D02*
Y3810002D01*
X10590006Y3700002D02*
X10610006D01*
X10600006Y3690002D02*
Y3710002D01*
X10490006Y5300003D02*
X10510006D01*
X10500006Y5290003D02*
Y5310003D01*
X10540006Y5200003D02*
X10560006D01*
X10550006Y5190003D02*
Y5210003D01*
X10490006Y5100003D02*
X10510006D01*
X10500006Y5090003D02*
Y5110003D01*
X10490006Y4500002D02*
X10510006D01*
X10500006Y4490002D02*
Y4510002D01*
X10540006Y4400002D02*
X10560006D01*
X10550006Y4390002D02*
Y4410002D01*
X10490006Y4300002D02*
X10510006D01*
X10500006Y4290002D02*
Y4310002D01*
X10540006Y4200002D02*
X10560006D01*
X10550006Y4190002D02*
Y4210002D01*
X10490006Y4100002D02*
X10510006D01*
X10500006Y4090002D02*
Y4110002D01*
X10540006Y4000002D02*
X10560006D01*
X10550006Y3990002D02*
Y4010002D01*
X10490006Y3900002D02*
X10510006D01*
X10500006Y3890002D02*
Y3910002D01*
X10540006Y3800002D02*
X10560006D01*
X10550006Y3790002D02*
Y3810002D01*
X10490006Y3700002D02*
X10510006D01*
X10500006Y3690002D02*
Y3710002D01*
X10440006Y5200003D02*
X10460005D01*
X10450006Y5190003D02*
Y5210003D01*
X10390006Y5100003D02*
X10410006D01*
X10400006Y5090003D02*
Y5110003D01*
X10440006Y4600002D02*
X10460005D01*
X10450006Y4590003D02*
Y4610002D01*
X10390006Y4500002D02*
X10410006D01*
X10400006Y4490002D02*
Y4510002D01*
X10440006Y4400002D02*
X10460005D01*
X10450006Y4390002D02*
Y4410002D01*
X10390006Y4300002D02*
X10410006D01*
X10400006Y4290002D02*
Y4310002D01*
X10440006Y4200002D02*
X10460005D01*
X10450006Y4190002D02*
Y4210002D01*
X10390006Y4100002D02*
X10410006D01*
X10400006Y4090002D02*
Y4110002D01*
X10440006Y4000002D02*
X10460005D01*
X10450006Y3990002D02*
Y4010002D01*
X10390006Y3900002D02*
X10410006D01*
X10400006Y3890002D02*
Y3910002D01*
X10440006Y3800002D02*
X10460005D01*
X10450006Y3790002D02*
Y3810002D01*
X10390006Y3700002D02*
X10410006D01*
X10400006Y3690002D02*
Y3710002D01*
X10340005Y5200003D02*
X10360005D01*
X10350005Y5190003D02*
Y5210003D01*
X10340005Y4600002D02*
X10360005D01*
X10350005Y4590003D02*
Y4610002D01*
X10290006Y4500002D02*
X10310006D01*
X10300006Y4490002D02*
Y4510002D01*
X10340005Y4400002D02*
X10360005D01*
X10350005Y4390002D02*
Y4410002D01*
X10290006Y4300002D02*
X10310006D01*
X10300006Y4290002D02*
Y4310002D01*
X10340005Y4200002D02*
X10360005D01*
X10350005Y4190002D02*
Y4210002D01*
X10290006Y4100002D02*
X10310006D01*
X10300006Y4090002D02*
Y4110002D01*
X10340005Y4000002D02*
X10360005D01*
X10350005Y3990002D02*
Y4010002D01*
X10290006Y3900002D02*
X10310006D01*
X10300006Y3890002D02*
Y3910002D01*
X10340005Y3800002D02*
X10360005D01*
X10350005Y3790002D02*
Y3810002D01*
X10290006Y3700002D02*
X10310006D01*
X10300006Y3690002D02*
Y3710002D01*
X10240005Y5200003D02*
X10260005D01*
X10250005Y5190003D02*
Y5210003D01*
X10240005Y4600002D02*
X10260005D01*
X10250005Y4590003D02*
Y4610002D01*
X10190006Y4500002D02*
X10210005D01*
X10200006Y4490002D02*
Y4510002D01*
X10240005Y4400002D02*
X10260005D01*
X10250005Y4390002D02*
Y4410002D01*
X10190006Y4300002D02*
X10210005D01*
X10200006Y4290002D02*
Y4310002D01*
X10240005Y4200002D02*
X10260005D01*
X10250005Y4190002D02*
Y4210002D01*
X10190006Y4100002D02*
X10210005D01*
X10200006Y4090002D02*
Y4110002D01*
X10240005Y4000002D02*
X10260005D01*
X10250005Y3990002D02*
Y4010002D01*
X10190006Y3900002D02*
X10210005D01*
X10200006Y3890002D02*
Y3910002D01*
X10240005Y3800002D02*
X10260005D01*
X10250005Y3790002D02*
Y3810002D01*
X10190006Y3700002D02*
X10210005D01*
X10200006Y3690002D02*
Y3710002D01*
X10090005Y5700003D02*
X10110005D01*
X10100005Y5690003D02*
Y5710003D01*
X10140005Y4800003D02*
X10160005D01*
X10150005Y4790003D02*
Y4810003D01*
X10090005Y4500002D02*
X10110005D01*
X10100005Y4490002D02*
Y4510002D01*
X10140005Y4400002D02*
X10160005D01*
X10150005Y4390002D02*
Y4410002D01*
X10090005Y4300002D02*
X10110005D01*
X10100005Y4290002D02*
Y4310002D01*
X10140005Y4200002D02*
X10160005D01*
X10150005Y4190002D02*
Y4210002D01*
X10090005Y4100002D02*
X10110005D01*
X10100005Y4090002D02*
Y4110002D01*
X10140005Y4000002D02*
X10160005D01*
X10150005Y3990002D02*
Y4010002D01*
X10090005Y3900002D02*
X10110005D01*
X10100005Y3890002D02*
Y3910002D01*
X10140005Y3800002D02*
X10160005D01*
X10150005Y3790002D02*
Y3810002D01*
X10090005Y3700002D02*
X10110005D01*
X10100005Y3690002D02*
Y3710002D01*
X9990005Y4500002D02*
X10010005D01*
X10000005Y4490002D02*
Y4510002D01*
X10040005Y4400002D02*
X10060005D01*
X10050005Y4390002D02*
Y4410002D01*
X9990005Y4300002D02*
X10010005D01*
X10000005Y4290002D02*
Y4310002D01*
X10040005Y4200002D02*
X10060005D01*
X10050005Y4190002D02*
Y4210002D01*
X9990005Y4100002D02*
X10010005D01*
X10000005Y4090002D02*
Y4110002D01*
X10040005Y4000002D02*
X10060005D01*
X10050005Y3990002D02*
Y4010002D01*
X9990005Y3900002D02*
X10010005D01*
X10000005Y3890002D02*
Y3910002D01*
X10040005Y3800002D02*
X10060005D01*
X10050005Y3790002D02*
Y3810002D01*
X9990005Y3700002D02*
X10010005D01*
X10000005Y3690002D02*
Y3710002D01*
X9890005Y4500002D02*
X9910005D01*
X9900005Y4490002D02*
Y4510002D01*
X9940005Y4400002D02*
X9960005D01*
X9950005Y4390002D02*
Y4410002D01*
X9890005Y4300002D02*
X9910005D01*
X9900005Y4290002D02*
Y4310002D01*
X9940005Y4200002D02*
X9960005D01*
X9950005Y4190002D02*
Y4210002D01*
X9890005Y4100002D02*
X9910005D01*
X9900005Y4090002D02*
Y4110002D01*
X9940005Y4000002D02*
X9960005D01*
X9950005Y3990002D02*
Y4010002D01*
X9890005Y3900002D02*
X9910005D01*
X9900005Y3890002D02*
Y3910002D01*
X9940005Y3800002D02*
X9960005D01*
X9950005Y3790002D02*
Y3810002D01*
X9890005Y3700002D02*
X9910005D01*
X9900005Y3690002D02*
Y3710002D01*
X9790005Y4500002D02*
X9810005D01*
X9800005Y4490002D02*
Y4510002D01*
X9840005Y4400002D02*
X9860005D01*
X9850005Y4390002D02*
Y4410002D01*
X9790005Y4300002D02*
X9810005D01*
X9800005Y4290002D02*
Y4310002D01*
X9840005Y4200002D02*
X9860005D01*
X9850005Y4190002D02*
Y4210002D01*
X9790005Y4100002D02*
X9810005D01*
X9800005Y4090002D02*
Y4110002D01*
X9840005Y4000002D02*
X9860005D01*
X9850005Y3990002D02*
Y4010002D01*
X9790005Y3900002D02*
X9810005D01*
X9800005Y3890002D02*
Y3910002D01*
X9840005Y3800002D02*
X9860005D01*
X9850005Y3790002D02*
Y3810002D01*
X9790005Y3700002D02*
X9810005D01*
X9800005Y3690002D02*
Y3710002D01*
X9690005Y4500002D02*
X9710005D01*
X9700005Y4490002D02*
Y4510002D01*
X9740005Y4400002D02*
X9760005D01*
X9750005Y4390002D02*
Y4410002D01*
X9690005Y4300002D02*
X9710005D01*
X9700005Y4290002D02*
Y4310002D01*
X9740005Y4200002D02*
X9760005D01*
X9750005Y4190002D02*
Y4210002D01*
X9690005Y4100002D02*
X9710005D01*
X9700005Y4090002D02*
Y4110002D01*
X9740005Y4000002D02*
X9760005D01*
X9750005Y3990002D02*
Y4010002D01*
X9690005Y3900002D02*
X9710005D01*
X9700005Y3890002D02*
Y3910002D01*
X9740005Y3800002D02*
X9760005D01*
X9750005Y3790002D02*
Y3810002D01*
X9690005Y3700002D02*
X9710005D01*
X9700005Y3690002D02*
Y3710002D01*
X9590005Y4500002D02*
X9610005D01*
X9600005Y4490002D02*
Y4510002D01*
X9640005Y4400002D02*
X9660005D01*
X9650005Y4390002D02*
Y4410002D01*
X9590005Y4300002D02*
X9610005D01*
X9600005Y4290002D02*
Y4310002D01*
X9640005Y4200002D02*
X9660005D01*
X9650005Y4190002D02*
Y4210002D01*
X9590005Y4100002D02*
X9610005D01*
X9600005Y4090002D02*
Y4110002D01*
X9640005Y4000002D02*
X9660005D01*
X9650005Y3990002D02*
Y4010002D01*
X9590005Y3900002D02*
X9610005D01*
X9600005Y3890002D02*
Y3910002D01*
X9640005Y3800002D02*
X9660005D01*
X9650005Y3790002D02*
Y3810002D01*
X9590005Y3700002D02*
X9610005D01*
X9600005Y3690002D02*
Y3710002D01*
X9490005Y4500002D02*
X9510005D01*
X9500005Y4490002D02*
Y4510002D01*
X9540005Y4400002D02*
X9560005D01*
X9550005Y4390002D02*
Y4410002D01*
X9490005Y4300002D02*
X9510005D01*
X9500005Y4290002D02*
Y4310002D01*
X9540005Y4200002D02*
X9560005D01*
X9550005Y4190002D02*
Y4210002D01*
X9490005Y4100002D02*
X9510005D01*
X9500005Y4090002D02*
Y4110002D01*
X9540005Y4000002D02*
X9560005D01*
X9550005Y3990002D02*
Y4010002D01*
X9490005Y3900002D02*
X9510005D01*
X9500005Y3890002D02*
Y3910002D01*
X9540005Y3800002D02*
X9560005D01*
X9550005Y3790002D02*
Y3810002D01*
X9490005Y3700002D02*
X9510005D01*
X9500005Y3690002D02*
Y3710002D01*
X9390005Y5300003D02*
X9410005D01*
X9400005Y5290003D02*
Y5310003D01*
X9440005Y5200003D02*
X9460005D01*
X9450005Y5190003D02*
Y5210003D01*
X9390005Y5100003D02*
X9410005D01*
X9400005Y5090003D02*
Y5110003D01*
X9390005Y4500002D02*
X9410005D01*
X9400005Y4490002D02*
Y4510002D01*
X9440005Y4400002D02*
X9460005D01*
X9450005Y4390002D02*
Y4410002D01*
X9390005Y4300002D02*
X9410005D01*
X9400005Y4290002D02*
Y4310002D01*
X9440005Y4200002D02*
X9460005D01*
X9450005Y4190002D02*
Y4210002D01*
X9390005Y4100002D02*
X9410005D01*
X9400005Y4090002D02*
Y4110002D01*
X9440005Y4000002D02*
X9460005D01*
X9450005Y3990002D02*
Y4010002D01*
X9390005Y3900002D02*
X9410005D01*
X9400005Y3890002D02*
Y3910002D01*
X9440005Y3800002D02*
X9460005D01*
X9450005Y3790002D02*
Y3810002D01*
X9390005Y3700002D02*
X9410005D01*
X9400005Y3690002D02*
Y3710002D01*
X9290005Y5100003D02*
X9310005D01*
X9300005Y5090003D02*
Y5110003D01*
X9290005Y4500002D02*
X9310005D01*
X9300005Y4490002D02*
Y4510002D01*
X9340005Y4400002D02*
X9360005D01*
X9350005Y4390002D02*
Y4410002D01*
X9290005Y4300002D02*
X9310005D01*
X9300005Y4290002D02*
Y4310002D01*
X9340005Y4200002D02*
X9360005D01*
X9350005Y4190002D02*
Y4210002D01*
X9290005Y4100002D02*
X9310005D01*
X9300005Y4090002D02*
Y4110002D01*
X9340005Y4000002D02*
X9360005D01*
X9350005Y3990002D02*
Y4010002D01*
X9290005Y3900002D02*
X9310005D01*
X9300005Y3890002D02*
Y3910002D01*
X9340005Y3800002D02*
X9360005D01*
X9350005Y3790002D02*
Y3810002D01*
X9290005Y3700002D02*
X9310005D01*
X9300005Y3690002D02*
Y3710002D01*
X9190005Y4500002D02*
X9210005D01*
X9200005Y4490002D02*
Y4510002D01*
X9240005Y4400002D02*
X9260005D01*
X9250005Y4390002D02*
Y4410002D01*
X9190005Y4300002D02*
X9210005D01*
X9200005Y4290002D02*
Y4310002D01*
X9240005Y4200002D02*
X9260005D01*
X9250005Y4190002D02*
Y4210002D01*
X9190005Y4100002D02*
X9210005D01*
X9200005Y4090002D02*
Y4110002D01*
X9240005Y4000002D02*
X9260005D01*
X9250005Y3990002D02*
Y4010002D01*
X9190005Y3900002D02*
X9210005D01*
X9200005Y3890002D02*
Y3910002D01*
X9240005Y3800002D02*
X9260005D01*
X9250005Y3790002D02*
Y3810002D01*
X9190005Y3700002D02*
X9210005D01*
X9200005Y3690002D02*
Y3710002D01*
X9090005Y4500002D02*
X9110005D01*
X9100005Y4490002D02*
Y4510002D01*
X9140005Y4400002D02*
X9160005D01*
X9150005Y4390002D02*
Y4410002D01*
X9090005Y4300002D02*
X9110005D01*
X9100005Y4290002D02*
Y4310002D01*
X9140005Y4200002D02*
X9160005D01*
X9150005Y4190002D02*
Y4210002D01*
X9090005Y4100002D02*
X9110005D01*
X9100005Y4090002D02*
Y4110002D01*
X9140005Y4000002D02*
X9160005D01*
X9150005Y3990002D02*
Y4010002D01*
X9090005Y3900002D02*
X9110005D01*
X9100005Y3890002D02*
Y3910002D01*
X9140005Y3800002D02*
X9160005D01*
X9150005Y3790002D02*
Y3810002D01*
X9090005Y3700002D02*
X9110005D01*
X9100005Y3690002D02*
Y3710002D01*
X9040005Y4400002D02*
X9060005D01*
X9050005Y4390002D02*
Y4410002D01*
X8990005Y4300002D02*
X9010005D01*
X9000005Y4290002D02*
Y4310002D01*
X9040005Y4200002D02*
X9060005D01*
X9050005Y4190002D02*
Y4210002D01*
X8990005Y4100002D02*
X9010005D01*
X9000005Y4090002D02*
Y4110002D01*
X9040005Y4000002D02*
X9060005D01*
X9050005Y3990002D02*
Y4010002D01*
X8990005Y3900002D02*
X9010005D01*
X9000005Y3890002D02*
Y3910002D01*
X9040005Y3800002D02*
X9060005D01*
X9050005Y3790002D02*
Y3810002D01*
X8990005Y3700002D02*
X9010005D01*
X9000005Y3690002D02*
Y3710002D01*
X8890005Y4300002D02*
X8910005D01*
X8900005Y4290002D02*
Y4310002D01*
X8940005Y4200002D02*
X8960005D01*
X8950005Y4190002D02*
Y4210002D01*
X8890005Y4100002D02*
X8910005D01*
X8900005Y4090002D02*
Y4110002D01*
X8940005Y4000002D02*
X8960005D01*
X8950005Y3990002D02*
Y4010002D01*
X8890005Y3900002D02*
X8910005D01*
X8900005Y3890002D02*
Y3910002D01*
X8940005Y3800002D02*
X8960005D01*
X8950005Y3790002D02*
Y3810002D01*
X8890005Y3700002D02*
X8910005D01*
X8900005Y3690002D02*
Y3710002D01*
X8840005Y4200002D02*
X8860005D01*
X8850005Y4190002D02*
Y4210002D01*
X8790005Y4100002D02*
X8810005D01*
X8800005Y4090002D02*
Y4110002D01*
X8840005Y4000002D02*
X8860005D01*
X8850005Y3990002D02*
Y4010002D01*
X8790005Y3900002D02*
X8810005D01*
X8800005Y3890002D02*
Y3910002D01*
X8840005Y3800002D02*
X8860005D01*
X8850005Y3790002D02*
Y3810002D01*
X8790005Y3700002D02*
X8810005D01*
X8800005Y3690002D02*
Y3710002D01*
X8690005Y4300002D02*
X8710005D01*
X8700005Y4290002D02*
Y4310002D01*
X8740005Y4200002D02*
X8760005D01*
X8750005Y4190002D02*
Y4210002D01*
X8690005Y4100002D02*
X8710005D01*
X8700005Y4090002D02*
Y4110002D01*
X8740005Y4000002D02*
X8760005D01*
X8750005Y3990002D02*
Y4010002D01*
X8690005Y3900002D02*
X8710005D01*
X8700005Y3890002D02*
Y3910002D01*
X8740005Y3800002D02*
X8760005D01*
X8750005Y3790002D02*
Y3810002D01*
X8690005Y3700002D02*
X8710005D01*
X8700005Y3690002D02*
Y3710002D01*
X8590005Y4300002D02*
X8610005D01*
X8600005Y4290002D02*
Y4310002D01*
X8640005Y4200002D02*
X8660005D01*
X8650005Y4190002D02*
Y4210002D01*
X8590005Y4100002D02*
X8610005D01*
X8600005Y4090002D02*
Y4110002D01*
X8640005Y4000002D02*
X8660005D01*
X8650005Y3990002D02*
Y4010002D01*
X8590005Y3900002D02*
X8610005D01*
X8600005Y3890002D02*
Y3910002D01*
X8640005Y3800002D02*
X8660005D01*
X8650005Y3790002D02*
Y3810002D01*
X8590005Y3700002D02*
X8610005D01*
X8600005Y3690002D02*
Y3710002D01*
X8490005Y5100003D02*
X8510005D01*
X8500005Y5090003D02*
Y5110003D01*
X8490005Y4900003D02*
X8510005D01*
X8500005Y4890003D02*
Y4910003D01*
X8490005Y4700003D02*
X8510005D01*
X8500005Y4690003D02*
Y4710003D01*
X8490005Y4500002D02*
X8510005D01*
X8500005Y4490002D02*
Y4510002D01*
X8540005Y4400002D02*
X8560004D01*
X8550004Y4390002D02*
Y4410002D01*
X8490005Y4300002D02*
X8510005D01*
X8500005Y4290002D02*
Y4310002D01*
X8540005Y4200002D02*
X8560004D01*
X8550004Y4190002D02*
Y4210002D01*
X8490005Y4100002D02*
X8510005D01*
X8500005Y4090002D02*
Y4110002D01*
X8540005Y4000002D02*
X8560004D01*
X8550004Y3990002D02*
Y4010002D01*
X8490005Y3900002D02*
X8510005D01*
X8500005Y3890002D02*
Y3910002D01*
X8540005Y3800002D02*
X8560004D01*
X8550004Y3790002D02*
Y3810002D01*
X8490005Y3700002D02*
X8510005D01*
X8500005Y3690002D02*
Y3710002D01*
X8390005Y5100003D02*
X8410005D01*
X8400005Y5090003D02*
Y5110003D01*
X8440004Y5000003D02*
X8460004D01*
X8450004Y4990003D02*
Y5010003D01*
X8390005Y4900003D02*
X8410005D01*
X8400005Y4890003D02*
Y4910003D01*
X8440004Y4800003D02*
X8460004D01*
X8450004Y4790003D02*
Y4810003D01*
X8390005Y4700003D02*
X8410005D01*
X8400005Y4690003D02*
Y4710003D01*
X8440004Y4600002D02*
X8460004D01*
X8450004Y4590003D02*
Y4610002D01*
X8440004Y4400002D02*
X8460004D01*
X8450004Y4390002D02*
Y4410002D01*
X8390005Y4300002D02*
X8410005D01*
X8400005Y4290002D02*
Y4310002D01*
X8440004Y4200002D02*
X8460004D01*
X8450004Y4190002D02*
Y4210002D01*
X8390005Y4100002D02*
X8410005D01*
X8400005Y4090002D02*
Y4110002D01*
X8440004Y4000002D02*
X8460004D01*
X8450004Y3990002D02*
Y4010002D01*
X8390005Y3900002D02*
X8410005D01*
X8400005Y3890002D02*
Y3910002D01*
X8440004Y3800002D02*
X8460004D01*
X8450004Y3790002D02*
Y3810002D01*
X8390005Y3700002D02*
X8410005D01*
X8400005Y3690002D02*
Y3710002D01*
X8290005Y5100003D02*
X8310004D01*
X8300004Y5090003D02*
Y5110003D01*
X8340004Y5000003D02*
X8360004D01*
X8350004Y4990003D02*
Y5010003D01*
X8290005Y4900003D02*
X8310004D01*
X8300004Y4890003D02*
Y4910003D01*
X8340004Y4800003D02*
X8360004D01*
X8350004Y4790003D02*
Y4810003D01*
X8290005Y4700003D02*
X8310004D01*
X8300004Y4690003D02*
Y4710003D01*
X8290005Y4100002D02*
X8310004D01*
X8300004Y4090002D02*
Y4110002D01*
X8340004Y4000002D02*
X8360004D01*
X8350004Y3990002D02*
Y4010002D01*
X8290005Y3900002D02*
X8310004D01*
X8300004Y3890002D02*
Y3910002D01*
X8340004Y3800002D02*
X8360004D01*
X8350004Y3790002D02*
Y3810002D01*
X8290005Y3700002D02*
X8310004D01*
X8300004Y3690002D02*
Y3710002D01*
X8190004Y5100003D02*
X8210004D01*
X8200004Y5090003D02*
Y5110003D01*
X8240004Y5000003D02*
X8260004D01*
X8250004Y4990003D02*
Y5010003D01*
X8190004Y4900003D02*
X8210004D01*
X8200004Y4890003D02*
Y4910003D01*
X8190004Y4100002D02*
X8210004D01*
X8200004Y4090002D02*
Y4110002D01*
X8240004Y4000002D02*
X8260004D01*
X8250004Y3990002D02*
Y4010002D01*
X8190004Y3900002D02*
X8210004D01*
X8200004Y3890002D02*
Y3910002D01*
X8240004Y3800002D02*
X8260004D01*
X8250004Y3790002D02*
Y3810002D01*
X8190004Y3700002D02*
X8210004D01*
X8200004Y3690002D02*
Y3710002D01*
X10147500Y5230000D02*
X10167500D01*
X10157500Y5220000D02*
Y5240000D01*
X11852500Y5677500D02*
X11872500D01*
X11862500Y5667500D02*
Y5687500D01*
X9547500Y5342500D02*
X9567500D01*
X9557500Y5332500D02*
Y5352500D01*
X9230000Y5145000D02*
X9250000D01*
X9240000Y5135000D02*
Y5155000D01*
X10135000Y5612500D02*
X10155000D01*
X10145000Y5602500D02*
Y5622500D01*
X8190000Y4675000D02*
X8210000D01*
X8200000Y4665000D02*
Y4685000D01*
X8412500Y4502500D02*
X8432500D01*
X8422500Y4492500D02*
Y4512500D01*
X8185000Y4322500D02*
X8205000D01*
X8195000Y4312500D02*
Y4332500D01*
X8792500D02*
X8812500D01*
X8802500Y4322500D02*
Y4342500D01*
X10140000Y5775000D02*
X10160000D01*
X10150000Y5765000D02*
Y5785000D01*
X10417500Y5327500D02*
X10437500D01*
X10427500Y5317500D02*
Y5337500D01*
X10217500Y5242500D02*
X10237500D01*
X10227500Y5232500D02*
Y5252500D01*
X10297500Y5167500D02*
X10317500D01*
X10307500Y5157500D02*
Y5177500D01*
X10147500Y4977500D02*
X10167500D01*
X10157500Y4967500D02*
Y4987500D01*
X10510000Y5050000D02*
X10530000D01*
X10520000Y5040000D02*
Y5060000D01*
X10362500Y4980000D02*
X10382500D01*
X10372500Y4970000D02*
Y4990000D01*
X10365000Y4827500D02*
X10385000D01*
X10375000Y4817500D02*
Y4837500D01*
X10512500Y4617500D02*
X10532500D01*
X10522500Y4607500D02*
Y4627500D01*
X11335000Y4287500D02*
X11355000D01*
X11345000Y4277500D02*
Y4297500D01*
X11790000Y4327500D02*
X11810000D01*
X11800000Y4317500D02*
Y4337500D01*
X11565000Y4432500D02*
X11585000D01*
X11575000Y4422500D02*
Y4442500D01*
X11565000Y4502500D02*
X11585000D01*
X11575000Y4492500D02*
Y4512500D01*
X11790000Y4672500D02*
X11810000D01*
X11800000Y4662500D02*
Y4682500D01*
X11825000Y4955000D02*
X11845000D01*
X11835000Y4945000D02*
Y4965000D01*
X11677500Y4825000D02*
X11697500D01*
X11687500Y4815000D02*
Y4835000D01*
%TF.MD5,d8b1774e2e02a9eba350470282ac8e11*%
M02*
