%TF.GenerationSoftware,Altium Limited,Altium Designer,24.7.2 (38)*%
G04 Layer_Color=8388736*
%FSLAX45Y45*%
%MOMM*%
%TF.SameCoordinates,665F1D1F-C803-44D7-9F74-9D0A5895F251*%
%TF.FilePolarity,Positive*%
%TF.FileFunction,Other,Top_3D_Body*%
%TF.Part,Single*%
G01*
G75*
%TA.AperFunction,NonConductor*%
%ADD30C,0.20000*%
D30*
X11607500Y6165000D02*
X11807500D01*
X11607500D02*
Y6290000D01*
X11807500D01*
Y6165000D02*
Y6290000D01*
X11732500Y5785000D02*
Y5995000D01*
X11867500D01*
Y5785000D02*
Y5995000D01*
X11732500Y5785000D02*
X11867500D01*
X11470000Y4432481D02*
Y4762480D01*
X11220000Y4432481D02*
X11470000D01*
X11220000D02*
Y4762480D01*
X11470000D01*
X10723200Y5754600D02*
X11395600D01*
Y5082200D02*
Y5754600D01*
X10723200Y5082200D02*
X11395600D01*
X10723200D02*
Y5754600D01*
X9964914Y5837500D02*
X10164914D01*
X9964914D02*
Y5962500D01*
X10164914D01*
Y5837500D02*
Y5962500D01*
X9722500Y5802500D02*
Y6022500D01*
X9862500D01*
Y5802500D02*
Y6022500D01*
X9722500Y5802500D02*
X9862500D01*
X8602500Y4470000D02*
Y4930000D01*
X8997500D01*
Y4470000D02*
Y4930000D01*
X8602500Y4470000D02*
X8997500D01*
X10065000Y5563400D02*
X10225000D01*
Y5273400D02*
Y5563400D01*
X10065000Y5273400D02*
X10225000D01*
X10065000D02*
Y5563400D01*
X9570000Y5672500D02*
X9790000D01*
Y5527500D02*
Y5672500D01*
X9570000Y5527500D02*
X9790000D01*
X9570000D02*
Y5672500D01*
X9322500Y5230000D02*
Y5450000D01*
X9177500Y5230000D02*
X9322500D01*
X9177500D02*
Y5450000D01*
X9322500D01*
X10510000Y4700000D02*
X10840000D01*
X10510000D02*
Y4950000D01*
X10840000D01*
Y4700000D02*
Y4950000D01*
X9940000Y5100000D02*
X10260000D01*
Y4850000D02*
Y5100000D01*
X9940000Y4850000D02*
X10260000D01*
X9940000D02*
Y5100000D01*
X8653000Y5915000D02*
X8947000D01*
X8653000Y5285000D02*
Y5915000D01*
Y5285000D02*
X8947000D01*
Y5915000D01*
%TF.MD5,da413f3ae575b776940904b520203bb8*%
M02*
